{"glyphs":{"0":{"ha":771,"x_min":55,"x_max":716,"o":"m 716 479 q 633 111 716 236 q 383 -13 549 -13 q 55 479 55 -13 q 91 759 55 651 q 199 919 127 867 q 388 971 271 971 q 637 848 557 971 q 716 479 716 725 m 524 479 q 511 684 524 611 q 470 788 499 756 q 387 820 442 820 q 300 788 330 820 q 259 684 271 756 q 246 479 246 611 q 259 274 246 348 q 301 168 273 201 q 385 136 330 136 q 468 170 438 136 q 510 278 497 204 q 524 479 524 351 z "},"1":{"ha":771,"x_min":87,"x_max":735,"o":"m 87 0 l 87 142 l 325 142 l 325 793 l 95 651 l 95 800 l 335 955 l 515 955 l 515 142 l 735 142 l 735 0 l 87 0 z "},"2":{"ha":771,"x_min":49,"x_max":716,"o":"m 49 0 l 49 132 q 154 292 85 214 q 328 455 223 370 q 469 590 428 537 q 509 693 509 643 q 383 818 509 818 q 290 785 323 818 q 248 686 258 751 l 57 698 q 156 900 74 830 q 382 971 239 971 q 618 899 535 971 q 701 701 701 828 q 675 580 701 634 q 607 479 649 525 q 515 394 566 433 q 418 316 465 355 q 331 239 370 278 q 273 157 293 201 l 716 157 l 716 0 l 49 0 z "},"3":{"ha":771,"x_min":32,"x_max":723,"o":"m 723 264 q 634 58 723 131 q 383 -15 546 -15 q 138 55 229 -15 q 32 259 47 126 l 226 276 q 383 139 244 139 q 489 173 452 139 q 527 276 527 207 q 481 374 527 340 q 343 408 435 408 l 278 408 l 278 562 l 340 562 q 464 596 422 562 q 505 691 505 629 q 472 784 505 750 q 377 818 438 818 q 281 786 318 818 q 239 693 244 753 l 49 706 q 151 900 64 830 q 380 971 238 971 q 614 903 530 971 q 698 716 698 835 q 645 569 698 628 q 494 492 592 510 l 494 489 q 663 416 604 475 q 723 264 723 356 z "},"4":{"ha":771,"x_min":22,"x_max":765,"o":"m 638 194 l 638 0 l 455 0 l 455 194 l 22 194 l 22 338 l 425 955 l 638 955 l 638 336 l 765 336 l 765 194 l 638 194 m 455 649 q 458 729 455 686 q 462 783 460 771 q 398 673 443 745 l 176 336 l 455 336 l 455 649 z "},"5":{"ha":771,"x_min":44,"x_max":735,"o":"m 735 318 q 639 76 735 166 q 380 -13 544 -13 q 150 51 236 -13 q 44 239 64 115 l 233 254 q 286 166 248 194 q 382 137 325 137 q 495 183 453 137 q 537 315 537 229 q 498 435 537 390 q 387 480 459 480 q 256 418 308 480 l 70 418 l 104 955 l 678 955 l 678 813 l 276 813 l 261 572 q 433 634 330 633 q 652 549 569 634 q 735 318 735 464 z "},"6":{"ha":771,"x_min":50,"x_max":723,"o":"m 723 313 q 637 74 723 161 q 402 -13 551 -13 q 141 105 233 -13 q 50 455 50 223 q 142 841 50 711 q 405 971 234 971 q 597 917 527 971 q 696 750 668 863 l 517 725 q 402 820 492 818 q 281 743 325 820 q 238 510 238 666 q 322 588 268 561 q 445 616 377 616 q 648 534 574 616 q 723 313 723 452 m 530 308 q 493 433 530 390 q 390 475 455 475 q 289 434 326 475 q 251 328 251 393 q 290 190 251 244 q 395 136 330 136 q 495 182 460 136 q 530 308 530 228 z "},"7":{"ha":771,"x_min":60,"x_max":711,"o":"m 711 805 q 589 607 646 703 q 489 415 532 512 q 422 216 447 318 q 397 0 397 114 l 199 0 q 230 231 199 119 q 320 459 261 343 q 534 798 380 574 l 60 798 l 60 955 l 711 955 l 711 805 z "},"8":{"ha":771,"x_min":44,"x_max":730,"o":"m 730 269 q 641 61 730 136 q 387 -13 552 -13 q 133 60 223 -13 q 44 268 44 134 q 97 423 44 360 q 239 500 151 485 l 239 502 q 115 579 162 519 q 67 716 67 639 q 150 902 67 833 q 385 971 233 971 q 623 904 540 971 q 706 716 706 838 q 659 578 706 638 q 532 504 612 519 l 532 500 q 677 425 624 485 q 730 269 730 365 m 510 704 q 479 805 510 773 q 385 837 447 837 q 261 704 261 837 q 387 569 261 567 q 479 600 448 569 q 510 704 510 631 m 532 284 q 383 435 532 435 q 277 396 315 435 q 239 283 239 356 q 276 160 239 199 q 388 120 313 120 q 497 159 462 120 q 532 284 532 197 z "},"9":{"ha":771,"x_min":49,"x_max":721,"o":"m 721 494 q 628 113 721 239 q 365 -13 535 -13 q 167 40 239 -13 q 65 211 95 94 l 244 236 q 366 136 271 136 q 489 213 447 136 q 534 440 532 289 q 449 361 509 390 q 323 331 390 331 q 123 418 197 331 q 49 649 49 504 q 136 885 49 800 q 382 971 223 971 q 638 852 554 971 q 721 494 721 733 m 519 626 q 480 767 519 715 q 377 820 442 820 q 277 775 313 820 q 241 648 241 730 q 277 521 241 569 q 378 474 313 474 q 479 515 438 474 q 519 626 519 556 z "},"‘":{"ha":385,"x_min":94,"x_max":291,"o":"m 94 564 l 94 696 q 111 841 94 778 q 167 955 129 904 l 291 955 q 226 846 249 902 q 202 741 202 790 l 289 741 l 289 564 l 94 564 z "},"’":{"ha":385,"x_min":94,"x_max":291,"o":"m 291 955 l 291 823 q 274 679 291 741 q 218 564 256 616 l 94 564 q 159 674 136 617 q 182 778 182 730 l 97 778 l 97 955 l 291 955 z "}," ":{"ha":368,"x_min":0,"x_max":0,"o":""},"!":{"ha":462,"x_min":131,"x_max":330,"o":"m 308 289 l 152 289 l 131 955 l 330 955 l 308 289 m 131 0 l 131 182 l 326 182 l 326 0 l 131 0 z "},"\"":{"ha":658,"x_min":92,"x_max":567,"o":"m 547 609 l 398 609 l 380 955 l 567 955 l 547 609 m 258 609 l 110 609 l 92 955 l 276 955 l 258 609 z "},"#":{"ha":771,"x_min":23,"x_max":750,"o":"m 616 584 l 569 360 l 716 360 l 716 258 l 549 258 l 494 0 l 387 0 l 442 258 l 233 258 l 179 0 l 75 0 l 129 258 l 23 258 l 23 360 l 151 360 l 199 584 l 59 584 l 59 684 l 219 684 l 276 945 l 380 945 l 325 684 l 534 684 l 591 945 l 696 945 l 639 684 l 750 684 l 750 584 l 616 584 m 305 584 l 256 360 l 465 360 l 512 584 l 305 584 z "},"$":{"ha":771,"x_min":18,"x_max":753,"o":"m 753 279 q 670 90 753 157 q 427 15 587 22 l 427 -104 l 353 -104 l 353 13 q 126 82 207 18 q 18 276 44 146 l 192 308 q 243 196 206 231 q 353 154 281 161 l 353 418 q 343 422 351 420 q 331 423 335 423 q 166 483 221 448 q 79 570 110 517 q 49 698 49 622 q 126 872 49 810 q 353 940 204 934 l 353 1031 l 427 1031 l 427 940 q 575 912 515 937 q 670 839 634 887 q 730 703 706 791 l 551 676 q 510 767 540 735 q 427 807 480 800 l 427 569 l 433 567 q 554 535 453 567 q 704 438 654 502 q 753 279 753 375 m 353 810 q 226 701 228 800 q 237 652 226 671 q 268 619 248 633 q 353 584 288 606 l 353 810 m 576 276 q 564 331 576 310 q 529 366 552 353 q 427 403 505 380 l 427 154 q 576 276 576 164 z "},"%":{"ha":1235,"x_min":35,"x_max":1198,"o":"m 1198 293 q 1137 68 1198 146 q 959 -10 1076 -10 q 779 67 840 -10 q 718 293 718 144 q 776 521 718 445 q 961 597 835 597 q 1140 520 1083 597 q 1198 293 1198 443 m 375 0 l 234 0 l 858 955 l 1001 955 l 375 0 m 276 967 q 457 890 398 967 q 515 663 515 813 q 454 437 515 515 q 273 358 393 358 q 95 436 154 358 q 35 663 35 514 q 93 892 35 817 q 276 967 151 967 m 1053 293 q 1032 447 1053 400 q 961 494 1011 494 q 886 447 907 494 q 865 293 865 400 q 887 140 865 184 q 959 95 909 95 q 1031 141 1009 95 q 1053 293 1053 187 m 368 663 q 347 816 368 770 q 276 862 326 862 q 202 816 223 862 q 181 663 181 770 q 202 510 181 556 q 276 464 224 464 q 347 510 326 464 q 368 663 368 556 z "},"&":{"ha":1002,"x_min":60,"x_max":959,"o":"m 60 261 q 115 424 60 353 q 289 551 171 495 q 239 741 239 653 q 306 904 239 847 q 495 961 373 961 q 675 906 609 961 q 741 760 741 852 q 715 665 741 708 q 641 587 689 622 q 477 497 592 551 q 641 269 544 378 q 748 515 711 377 l 890 469 q 760 182 843 311 q 880 134 818 132 q 959 144 924 134 l 959 7 q 870 -8 922 -8 q 753 13 812 -8 q 648 74 694 33 q 390 -13 532 -13 q 146 59 233 -13 q 60 261 60 131 m 591 758 q 565 821 591 797 q 494 845 539 845 q 414 817 442 845 q 387 740 387 788 q 423 609 387 681 q 526 660 495 639 q 574 704 557 681 q 591 758 591 728 m 534 167 q 350 422 422 293 q 233 264 233 366 q 277 156 233 197 q 397 115 321 115 q 476 132 440 115 q 534 167 512 149 z "},"'":{"ha":330,"x_min":74,"x_max":258,"o":"m 239 609 l 92 609 l 74 955 l 258 955 l 239 609 z "},"(":{"ha":462,"x_min":69,"x_max":462,"o":"m 271 -288 q 116 18 164 -134 q 69 360 69 171 q 116 701 69 549 q 271 1006 164 853 l 462 1006 q 306 699 355 852 q 258 360 258 546 q 305 22 258 174 q 462 -288 353 -131 l 271 -288 z "},")":{"ha":462,"x_min":2,"x_max":393,"o":"m 2 -288 q 158 23 110 -129 q 206 360 206 174 q 156 699 206 546 q 2 1006 107 853 l 192 1006 q 346 699 300 852 q 393 360 393 547 q 346 18 393 171 q 192 -288 300 -134 l 2 -288 z "},"*":{"ha":540,"x_min":3,"x_max":539,"o":"m 333 770 l 494 840 l 539 706 l 370 666 l 495 520 l 371 438 l 273 609 l 171 438 l 45 522 l 174 666 l 3 706 l 50 840 l 213 770 l 201 955 l 346 955 l 333 770 z "},"+":{"ha":810,"x_min":59,"x_max":755,"o":"m 482 387 l 482 109 l 330 109 l 330 387 l 59 387 l 59 537 l 330 537 l 330 815 l 482 815 l 482 537 l 755 537 l 755 387 l 482 387 z "},",":{"ha":385,"x_min":94,"x_max":293,"o":"m 293 45 q 275 -99 293 -37 q 219 -214 258 -161 l 94 -214 q 159 -109 134 -166 q 184 0 184 -52 l 97 0 l 97 207 l 293 207 l 293 45 z "},"-":{"ha":462,"x_min":54,"x_max":407,"o":"m 54 278 l 54 443 l 407 443 l 407 278 l 54 278 z "},".":{"ha":385,"x_min":94,"x_max":289,"o":"m 94 0 l 94 207 l 289 207 l 289 0 l 94 0 z "},"/":{"ha":385,"x_min":13,"x_max":371,"o":"m 13 -28 l 211 1006 l 371 1006 l 179 -28 l 13 -28 z "},":":{"ha":462,"x_min":134,"x_max":330,"o":"m 134 510 l 134 701 l 330 701 l 330 510 l 134 510 m 134 0 l 134 191 l 330 191 l 330 0 l 134 0 z "},";":{"ha":462,"x_min":132,"x_max":330,"o":"m 136 510 l 136 701 l 330 701 l 330 510 l 136 510 m 330 45 q 313 -99 330 -37 q 258 -214 296 -161 l 132 -214 q 199 -104 176 -159 q 223 0 223 -49 l 136 0 l 136 191 l 330 191 l 330 45 z "},"<":{"ha":810,"x_min":59,"x_max":755,"o":"m 59 350 l 59 569 l 755 833 l 755 679 l 189 459 l 755 239 l 755 85 l 59 350 z "},"=":{"ha":810,"x_min":57,"x_max":755,"o":"m 57 571 l 57 723 l 755 723 l 755 571 l 57 571 m 57 197 l 57 348 l 755 348 l 755 197 l 57 197 z "},">":{"ha":810,"x_min":59,"x_max":755,"o":"m 59 85 l 59 239 l 622 459 l 59 679 l 59 833 l 755 569 l 755 350 l 59 85 z "},"?":{"ha":847,"x_min":64,"x_max":768,"o":"m 768 696 q 739 578 768 631 q 629 469 710 525 l 577 430 q 508 363 530 397 q 484 289 485 330 l 303 289 q 341 412 306 358 q 443 514 377 467 q 546 602 515 564 q 576 688 576 641 q 537 782 576 748 q 427 817 499 817 q 311 776 358 817 q 258 671 264 736 l 64 679 q 177 894 82 817 q 423 971 273 971 q 676 898 584 971 q 768 696 768 825 m 298 0 l 298 182 l 494 182 l 494 0 l 298 0 z "},"@":{"ha":1354,"x_min":79,"x_max":1273,"o":"m 1273 492 q 1231 266 1273 368 q 1112 107 1188 164 q 947 50 1036 50 q 852 81 885 50 q 818 167 818 112 q 822 213 818 192 l 818 213 q 718 95 785 141 q 581 50 651 50 q 415 119 474 50 q 356 311 356 187 q 400 519 356 422 q 521 671 443 616 q 696 726 599 726 q 875 609 828 726 l 879 609 l 905 711 l 1011 711 l 932 368 q 907 206 907 251 q 923 158 907 172 q 959 144 939 144 q 1063 191 1012 144 q 1142 316 1113 238 q 1171 490 1171 395 q 1119 700 1171 609 q 969 841 1066 791 q 741 890 872 890 q 455 819 579 890 q 260 614 331 748 q 189 313 189 480 q 243 80 189 181 q 395 -71 298 -20 q 624 -122 492 -122 q 1024 -17 823 -122 l 1066 -100 q 843 -192 952 -166 q 619 -219 735 -219 q 337 -155 459 -219 q 147 32 216 -90 q 79 313 79 154 q 165 660 79 505 q 402 900 251 815 q 741 986 554 986 q 1026 925 905 986 q 1210 751 1146 863 q 1273 492 1273 639 m 835 489 q 795 594 835 554 q 691 634 755 634 q 576 592 628 634 q 497 473 525 551 q 469 313 469 395 q 502 191 469 236 q 602 146 535 146 q 690 174 648 146 q 766 257 733 202 q 817 380 798 311 q 835 489 835 448 z "},"A":{"ha":1002,"x_min":35,"x_max":967,"o":"m 768 0 l 684 244 l 320 244 l 234 0 l 35 0 l 383 955 l 619 955 l 967 0 l 768 0 m 500 808 l 497 793 q 481 737 490 768 q 365 395 472 706 l 639 395 l 544 669 l 515 761 l 500 808 z "},"B":{"ha":1002,"x_min":94,"x_max":940,"o":"m 940 273 q 843 71 940 142 q 571 0 745 0 l 94 0 l 94 955 l 530 955 q 796 894 706 955 q 885 716 885 833 q 840 578 885 634 q 703 502 795 522 q 879 429 818 489 q 940 273 940 370 m 684 688 q 643 780 684 753 q 520 807 601 807 l 293 807 l 293 571 l 522 571 q 646 600 607 571 q 684 688 684 629 m 740 288 q 547 422 740 422 l 293 422 l 293 149 l 554 149 q 695 183 651 149 q 740 288 740 218 z "},"C":{"ha":1002,"x_min":57,"x_max":966,"o":"m 539 144 q 791 326 720 144 l 966 259 q 800 54 909 120 q 539 -13 691 -13 q 182 117 308 -13 q 57 482 57 248 q 178 844 57 718 q 530 971 300 971 q 805 903 699 971 q 952 704 910 835 l 776 656 q 689 771 755 728 q 534 813 622 813 q 328 729 398 813 q 258 482 258 644 q 330 231 258 318 q 539 144 403 144 z "},"D":{"ha":1002,"x_min":94,"x_max":945,"o":"m 945 485 q 887 228 945 338 q 722 59 828 117 q 480 0 616 0 l 94 0 l 94 955 l 438 955 q 812 834 679 955 q 945 485 945 713 m 743 485 q 663 720 743 639 q 435 802 584 802 l 293 802 l 293 154 l 462 154 q 667 243 591 154 q 743 485 743 333 z "},"E":{"ha":925,"x_min":94,"x_max":872,"o":"m 94 0 l 94 955 l 845 955 l 845 802 l 293 802 l 293 561 l 803 561 l 803 407 l 293 407 l 293 154 l 872 154 l 872 0 l 94 0 z "},"F":{"ha":847,"x_min":94,"x_max":798,"o":"m 293 802 l 293 505 l 781 505 l 781 351 l 293 351 l 293 0 l 94 0 l 94 955 l 798 955 l 798 802 l 293 802 z "},"G":{"ha":1079,"x_min":57,"x_max":994,"o":"m 547 144 q 699 166 626 144 q 812 224 771 189 l 812 356 l 577 356 l 577 504 l 994 504 l 994 152 q 797 30 919 74 q 540 -13 674 -13 q 182 115 308 -13 q 57 482 57 244 q 183 844 57 718 q 546 971 310 971 q 974 721 882 971 l 790 666 q 696 776 760 738 q 546 813 633 813 q 331 727 405 813 q 258 482 258 641 q 334 232 258 320 q 547 144 410 144 z "},"H":{"ha":1002,"x_min":94,"x_max":909,"o":"m 710 0 l 710 410 l 293 410 l 293 0 l 94 0 l 94 955 l 293 955 l 293 576 l 710 576 l 710 955 l 909 955 l 909 0 l 710 0 z "},"I":{"ha":385,"x_min":94,"x_max":293,"o":"m 94 0 l 94 955 l 293 955 l 293 0 l 94 0 z "},"J":{"ha":771,"x_min":22,"x_max":678,"o":"m 355 -13 q 126 51 206 -13 q 22 259 47 115 l 219 288 q 264 179 231 214 q 356 144 298 144 q 448 183 417 144 q 479 298 479 223 l 479 798 l 288 798 l 288 955 l 678 955 l 678 303 q 592 70 678 154 q 355 -13 507 -13 z "},"K":{"ha":1002,"x_min":94,"x_max":991,"o":"m 755 0 l 412 438 l 293 348 l 293 0 l 94 0 l 94 955 l 293 955 l 293 522 l 723 955 l 957 955 l 549 551 l 991 0 l 755 0 z "},"L":{"ha":847,"x_min":94,"x_max":805,"o":"m 94 0 l 94 955 l 293 955 l 293 154 l 805 154 l 805 0 l 94 0 z "},"M":{"ha":1156,"x_min":94,"x_max":1064,"o":"m 887 0 l 887 579 q 887 618 887 599 q 894 788 887 638 q 822 534 845 606 l 649 0 l 507 0 l 335 534 l 263 788 q 271 579 271 631 l 271 0 l 94 0 l 94 955 l 361 955 l 532 422 l 547 370 l 579 241 l 622 395 l 798 955 l 1064 955 l 1064 0 l 887 0 z "},"N":{"ha":1002,"x_min":94,"x_max":909,"o":"m 674 0 l 258 736 q 271 564 269 629 l 271 0 l 94 0 l 94 955 l 321 955 l 745 214 q 731 400 733 316 l 731 955 l 909 955 l 909 0 l 674 0 z "},"O":{"ha":1079,"x_min":57,"x_max":1022,"o":"m 1022 482 q 963 220 1022 333 q 794 47 904 107 q 537 -13 684 -13 q 184 119 311 -13 q 57 482 57 251 q 184 841 57 711 q 539 971 311 971 q 894 840 766 971 q 1022 482 1022 710 m 818 482 q 745 725 818 636 q 539 813 671 813 q 331 725 405 813 q 258 482 258 638 q 333 234 258 325 q 537 144 408 144 q 745 232 671 144 q 818 482 818 320 z "},"P":{"ha":925,"x_min":94,"x_max":879,"o":"m 879 653 q 837 488 879 561 q 716 376 795 415 q 530 336 638 336 l 293 336 l 293 0 l 94 0 l 94 955 l 522 955 q 786 876 694 955 q 879 653 879 797 m 678 649 q 500 800 678 800 l 293 800 l 293 490 l 505 490 q 633 531 587 490 q 678 649 678 572 z "},"Q":{"ha":1079,"x_min":57,"x_max":1022,"o":"m 1022 482 q 928 164 1022 291 q 666 3 833 37 q 731 -94 689 -64 q 848 -124 773 -124 q 929 -117 889 -124 l 927 -254 q 763 -273 842 -273 q 581 -212 653 -273 q 464 -7 509 -151 q 163 141 269 12 q 57 482 57 269 q 184 841 57 711 q 539 971 311 971 q 894 840 766 971 q 1022 482 1022 710 m 818 482 q 745 725 818 636 q 539 813 671 813 q 331 725 405 813 q 258 482 258 638 q 333 234 258 325 q 537 144 408 144 q 745 232 671 144 q 818 482 818 320 z "},"R":{"ha":1002,"x_min":94,"x_max":974,"o":"m 750 0 l 527 363 l 293 363 l 293 0 l 94 0 l 94 955 l 571 955 q 834 882 741 955 q 927 671 927 808 q 870 498 927 571 q 716 402 813 425 l 974 0 l 750 0 m 726 663 q 549 800 726 800 l 293 800 l 293 519 l 556 519 q 683 556 639 519 q 726 663 726 594 z "},"S":{"ha":925,"x_min":40,"x_max":872,"o":"m 872 276 q 768 61 872 136 q 462 -13 664 -13 q 174 52 278 -13 q 40 249 70 117 l 233 281 q 310 171 253 206 q 469 136 366 136 q 678 264 678 136 q 653 331 678 305 q 586 376 629 358 q 418 418 542 393 q 269 459 311 443 q 192 494 226 474 q 135 544 159 515 q 98 612 110 572 q 85 703 85 651 q 182 901 85 832 q 465 971 279 971 q 732 914 643 971 q 847 730 822 858 l 653 704 q 592 797 638 766 q 462 828 547 828 q 279 715 279 828 q 299 653 279 678 q 356 612 318 629 q 510 571 393 596 q 707 517 648 542 q 801 459 766 492 q 853 382 835 427 q 872 276 872 336 z "},"T":{"ha":847,"x_min":15,"x_max":833,"o":"m 524 802 l 524 0 l 325 0 l 325 802 l 15 802 l 15 955 l 833 955 l 833 802 l 524 802 z "},"U":{"ha":1002,"x_min":84,"x_max":919,"o":"m 490 -13 q 188 83 293 -13 q 84 358 84 179 l 84 955 l 283 955 l 283 373 q 337 202 283 259 q 495 144 392 144 q 660 205 602 144 q 718 380 718 266 l 718 955 l 919 955 l 919 368 q 807 86 919 186 q 490 -13 694 -13 z "},"V":{"ha":925,"x_min":10,"x_max":917,"o":"m 566 0 l 363 0 l 10 955 l 218 955 l 415 341 q 465 161 433 281 l 480 219 l 514 341 l 710 955 l 917 955 l 566 0 z "},"W":{"ha":1310,"x_min":2,"x_max":1310,"o":"m 1063 0 l 825 0 l 696 552 q 656 756 673 649 q 629 622 639 668 q 485 0 619 576 l 248 0 l 2 955 l 204 955 l 343 338 l 373 189 q 410 369 392 283 q 546 955 428 455 l 770 955 l 890 447 q 939 189 905 390 l 955 268 l 992 423 l 1106 955 l 1310 955 l 1063 0 z "},"X":{"ha":925,"x_min":12,"x_max":914,"o":"m 704 0 l 464 380 l 224 0 l 12 0 l 343 502 l 40 955 l 251 955 l 464 617 l 676 955 l 887 955 l 596 502 l 914 0 l 704 0 z "},"Y":{"ha":925,"x_min":23,"x_max":904,"o":"m 564 392 l 564 0 l 365 0 l 365 392 l 23 955 l 233 955 l 462 551 l 694 955 l 904 955 l 564 392 z "},"Z":{"ha":847,"x_min":42,"x_max":808,"o":"m 808 0 l 42 0 l 42 142 l 559 798 l 94 798 l 94 955 l 780 955 l 780 817 l 264 157 l 808 157 l 808 0 z "},"[":{"ha":462,"x_min":79,"x_max":445,"o":"m 79 -288 l 79 1006 l 445 1006 l 445 877 l 258 877 l 258 -159 l 445 -159 l 445 -288 l 79 -288 z "},"\\":{"ha":385,"x_min":15,"x_max":373,"o":"m 207 -28 l 15 1007 l 176 1007 l 373 -28 l 207 -28 z "},"]":{"ha":462,"x_min":17,"x_max":385,"o":"m 17 -288 l 17 -159 l 206 -159 l 206 877 l 17 877 l 17 1006 l 385 1006 l 385 -288 l 17 -288 z "},"^":{"ha":810,"x_min":30,"x_max":780,"o":"m 626 348 l 405 858 l 184 348 l 30 348 l 296 955 l 514 955 l 780 348 l 626 348 z "},"_":{"ha":771,"x_min":-13,"x_max":785,"o":"m -13 -169 l -13 -117 l 785 -117 l 785 -169 l -13 -169 z "},"`":{"ha":462,"x_min":45,"x_max":390,"o":"m 276 802 l 45 989 l 45 1019 l 219 1019 l 390 823 l 390 802 l 276 802 z "},"a":{"ha":771,"x_min":40,"x_max":781,"o":"m 266 -13 q 100 44 159 -13 q 40 207 40 102 q 115 381 40 321 q 330 442 189 440 l 489 445 l 489 482 q 464 589 489 554 q 382 624 438 624 q 304 600 328 624 q 273 520 279 576 l 74 530 q 172 693 92 638 q 390 748 251 748 q 604 679 529 748 q 679 484 679 611 l 679 218 q 693 132 679 156 q 740 109 706 109 q 781 112 761 109 l 781 10 q 751 3 765 7 q 724 -3 738 -2 q 694 -7 710 -5 q 659 -8 679 -8 q 553 27 587 -8 q 512 131 519 62 l 509 131 q 266 -13 427 -13 m 489 340 l 390 338 q 295 323 323 335 q 254 287 268 311 q 239 223 239 263 q 264 145 239 171 q 328 119 288 119 q 410 144 373 119 q 468 212 447 169 q 489 303 489 254 l 489 340 z "},"b":{"ha":847,"x_min":92,"x_max":791,"o":"m 791 370 q 719 87 791 187 q 510 -13 646 -13 q 375 20 432 -13 q 288 119 318 54 l 286 119 q 283 54 286 95 q 276 0 279 12 l 92 0 q 97 167 97 64 l 97 1006 l 288 1006 l 288 726 l 284 606 l 288 606 q 522 748 353 746 q 722 649 653 748 q 791 370 791 551 m 592 370 q 556 556 592 495 q 443 616 519 616 q 325 551 366 616 q 284 363 284 485 q 325 182 284 246 q 442 117 365 117 q 592 370 592 117 z "},"c":{"ha":771,"x_min":54,"x_max":731,"o":"m 403 -13 q 145 86 236 -13 q 54 363 54 186 q 146 647 54 546 q 405 748 238 748 q 619 683 534 748 q 726 502 704 617 l 534 494 q 494 583 525 551 q 402 616 462 616 q 254 370 254 616 q 405 117 254 115 q 495 151 459 117 q 540 253 532 186 l 731 244 q 678 110 721 169 q 563 18 634 50 q 403 -13 492 -13 z "},"d":{"ha":847,"x_min":57,"x_max":756,"o":"m 572 0 q 566 51 569 10 q 562 119 562 92 l 559 119 q 325 -13 497 -13 q 126 86 196 -13 q 57 366 57 186 q 131 648 57 549 q 340 748 204 748 q 474 715 418 748 q 561 617 530 683 l 562 617 l 561 738 l 561 1006 l 751 1006 l 751 161 q 756 0 751 92 l 572 0 m 564 371 q 524 554 564 490 q 407 617 484 617 q 293 556 330 617 q 256 366 256 494 q 405 117 256 117 q 522 183 480 117 q 564 371 564 249 z "},"e":{"ha":771,"x_min":54,"x_max":725,"o":"m 397 -13 q 142 85 231 -13 q 54 370 54 182 q 144 650 54 552 q 400 748 234 748 q 641 643 557 748 q 725 336 725 537 l 725 330 l 254 330 q 294 168 254 223 q 407 114 333 114 q 534 201 507 114 l 715 186 q 397 -13 636 -13 m 397 628 q 294 581 330 628 q 256 450 258 534 l 540 450 q 498 583 535 539 q 397 628 460 628 z "},"f":{"ha":462,"x_min":23,"x_max":465,"o":"m 321 606 l 321 0 l 131 0 l 131 606 l 23 606 l 23 735 l 131 735 l 131 810 q 183 958 131 910 q 345 1006 236 1006 q 465 996 398 1006 l 465 873 q 410 879 437 880 q 341 859 361 879 q 321 791 321 840 l 321 735 l 465 735 l 465 606 l 321 606 z "},"g":{"ha":847,"x_min":57,"x_max":755,"o":"m 405 -295 q 189 -243 271 -295 q 87 -97 107 -192 l 278 -75 q 321 -144 288 -119 q 410 -169 355 -169 q 525 -120 489 -169 q 562 25 562 -72 l 562 64 l 564 136 l 562 136 q 326 2 499 0 q 127 98 197 2 q 57 373 57 194 q 130 650 57 552 q 340 748 202 748 q 562 616 500 748 l 566 616 q 569 680 566 639 q 576 735 572 721 l 755 735 q 751 564 751 661 l 751 22 q 663 -215 751 -136 q 405 -295 574 -295 m 564 377 q 524 554 564 490 q 408 617 484 617 q 256 373 256 617 q 407 134 256 134 q 523 197 482 134 q 564 377 564 259 z "},"h":{"ha":847,"x_min":97,"x_max":763,"o":"m 284 587 q 382 710 323 671 q 520 748 440 748 q 700 676 638 748 q 763 465 763 604 l 763 0 l 572 0 l 572 412 q 442 604 572 606 q 330 545 373 604 q 288 393 288 485 l 288 0 l 97 0 l 97 1006 l 288 1006 l 288 731 q 283 587 288 658 l 284 587 z "},"i":{"ha":385,"x_min":97,"x_max":288,"o":"m 97 867 l 97 1006 l 288 1006 l 288 867 l 97 867 m 97 0 l 97 735 l 288 735 l 288 0 l 97 0 z "},"j":{"ha":385,"x_min":-22,"x_max":288,"o":"m 97 867 l 97 1006 l 288 1006 l 288 867 l 97 867 m 94 -288 q -22 -283 25 -288 l -22 -147 l 13 -151 q 79 -129 62 -151 q 97 -40 97 -107 l 97 735 l 288 735 l 288 -87 q 239 -236 288 -184 q 94 -288 191 -288 z "},"k":{"ha":771,"x_min":97,"x_max":773,"o":"m 566 0 l 370 333 l 288 276 l 288 0 l 97 0 l 97 1006 l 288 1006 l 288 430 l 549 735 l 755 735 l 497 447 l 773 0 l 566 0 z "},"l":{"ha":385,"x_min":97,"x_max":288,"o":"m 97 0 l 97 1006 l 288 1006 l 288 0 l 97 0 z "},"m":{"ha":1235,"x_min":92,"x_max":1150,"o":"m 529 0 l 529 412 q 418 606 529 606 q 325 546 361 606 q 288 393 288 487 l 288 0 l 97 0 l 97 569 q 95 666 97 628 q 92 735 94 704 l 273 735 q 279 665 274 721 q 283 587 283 609 l 284 587 q 372 710 320 671 q 499 748 425 748 q 703 587 668 748 l 706 587 q 796 710 743 673 q 929 748 848 748 q 1093 675 1036 748 q 1150 465 1150 602 l 1150 0 l 959 0 l 959 412 q 848 606 959 606 q 757 551 793 606 q 718 402 721 497 l 718 0 l 529 0 z "},"n":{"ha":847,"x_min":92,"x_max":763,"o":"m 572 0 l 572 412 q 442 606 572 606 q 330 546 373 606 q 288 393 288 487 l 288 0 l 97 0 l 97 569 q 95 666 97 628 q 92 735 94 704 l 273 735 q 279 665 274 721 q 283 587 283 609 l 284 587 q 382 710 323 671 q 520 748 440 748 q 700 676 638 748 q 763 465 763 604 l 763 0 l 572 0 z "},"o":{"ha":847,"x_min":54,"x_max":795,"o":"m 795 368 q 695 88 795 189 q 422 -13 596 -13 q 151 88 249 -13 q 54 368 54 189 q 151 647 54 546 q 425 748 249 748 q 699 650 604 748 q 795 368 795 552 m 594 368 q 551 557 594 499 q 428 616 509 616 q 254 368 254 616 q 297 182 254 246 q 418 117 340 117 q 594 368 594 117 z "},"p":{"ha":847,"x_min":92,"x_max":791,"o":"m 791 370 q 718 86 791 186 q 510 -13 644 -13 q 376 20 433 -13 q 288 117 318 54 l 283 117 q 288 -7 286 97 l 288 -288 l 97 -288 l 97 566 q 92 735 97 669 l 276 735 q 282 686 279 723 q 284 614 284 649 l 288 614 q 522 750 353 750 q 721 651 651 750 q 791 370 791 552 m 592 370 q 442 617 592 617 q 325 551 366 617 q 284 365 284 484 q 325 182 284 246 q 440 117 365 117 q 592 370 592 115 z "},"q":{"ha":847,"x_min":57,"x_max":755,"o":"m 57 366 q 131 648 57 549 q 340 748 206 748 q 562 616 500 748 q 566 685 562 648 q 572 735 569 723 l 755 735 q 751 566 751 661 l 751 -288 l 562 -288 l 562 17 l 566 122 l 564 122 q 325 -13 500 -13 q 126 87 196 -13 q 57 366 57 187 m 564 370 q 525 552 564 487 q 408 617 485 617 q 256 366 256 617 q 407 117 256 117 q 523 182 482 117 q 564 370 564 248 z "},"r":{"ha":540,"x_min":92,"x_max":519,"o":"m 97 0 l 97 562 q 95 663 97 622 q 92 735 94 703 l 273 735 q 279 660 274 723 q 283 577 283 597 l 284 577 q 335 686 313 654 q 386 733 356 718 q 460 748 415 748 q 519 738 497 748 l 519 579 q 438 589 472 589 q 327 531 366 589 q 288 360 288 474 l 288 0 l 97 0 z "},"s":{"ha":771,"x_min":49,"x_max":716,"o":"m 716 214 q 628 47 716 107 q 387 -13 540 -13 q 156 34 236 -13 q 49 182 75 82 l 216 207 q 266 134 231 156 q 387 112 301 112 q 504 133 467 112 q 540 197 540 154 q 511 253 540 233 q 412 288 482 273 q 194 347 251 320 q 108 418 137 375 q 79 525 79 462 q 159 689 79 631 q 388 748 239 748 q 599 697 519 748 q 698 551 679 646 l 530 532 q 490 599 522 577 q 388 621 459 621 q 286 604 320 621 q 253 546 253 587 q 279 495 253 514 q 366 465 305 477 q 520 428 452 447 q 628 384 587 410 q 692 318 668 358 q 716 214 716 278 z "},"t":{"ha":462,"x_min":17,"x_max":445,"o":"m 284 -12 q 156 33 201 -12 q 110 172 110 79 l 110 606 l 17 606 l 17 735 l 119 735 l 179 905 l 298 905 l 298 735 l 437 735 l 437 606 l 298 606 l 298 224 q 319 145 298 171 q 382 119 340 119 q 445 129 403 119 l 445 10 q 284 -12 375 -12 z "},"u":{"ha":847,"x_min":85,"x_max":756,"o":"m 276 735 l 276 323 q 407 129 276 129 q 518 188 475 129 q 561 340 561 248 l 561 735 l 751 735 l 751 164 q 756 0 751 70 l 576 0 q 567 146 567 97 l 564 146 q 467 24 525 62 q 328 -13 408 -13 q 148 58 211 -13 q 85 268 85 129 l 85 735 l 276 735 z "},"v":{"ha":771,"x_min":5,"x_max":766,"o":"m 495 0 l 268 0 l 5 735 l 207 735 l 335 323 q 383 154 345 289 q 411 252 390 182 q 567 735 432 321 l 766 735 l 495 0 z "},"w":{"ha":1079,"x_min":-3,"x_max":1083,"o":"m 890 0 l 689 0 l 572 447 q 540 597 564 477 l 505 447 l 387 0 l 186 0 l -3 735 l 176 735 l 296 172 l 305 223 l 323 303 l 437 735 l 641 735 l 755 303 q 781 172 765 268 l 802 263 l 907 735 l 1083 735 l 890 0 z "},"x":{"ha":771,"x_min":10,"x_max":763,"o":"m 556 0 l 385 266 l 213 0 l 10 0 l 278 380 l 22 735 l 228 735 l 385 494 l 540 735 l 748 735 l 492 382 l 763 0 l 556 0 z "},"y":{"ha":771,"x_min":10,"x_max":765,"o":"m 192 -288 q 72 -279 124 -288 l 72 -144 q 137 -149 107 -149 q 205 -136 177 -149 q 254 -94 233 -124 q 301 7 274 -64 l 10 735 l 213 735 l 328 390 q 397 164 355 316 l 413 228 l 457 387 l 566 735 l 765 735 l 475 -38 q 354 -233 417 -179 q 192 -288 291 -288 z "},"z":{"ha":694,"x_min":55,"x_max":644,"o":"m 55 0 l 55 136 l 402 596 l 84 596 l 84 735 l 611 735 l 611 597 l 268 139 l 644 139 l 644 0 l 55 0 z "},"{":{"ha":540,"x_min":22,"x_max":512,"o":"m 378 -288 q 233 -235 288 -288 q 177 -85 177 -182 l 177 137 q 141 253 177 214 q 22 293 104 291 l 22 425 q 141 467 104 428 q 177 581 177 505 l 177 803 q 231 954 177 902 q 378 1006 284 1006 l 512 1006 l 512 877 l 472 877 q 382 842 410 877 q 355 736 355 807 l 355 532 q 316 420 355 467 q 214 361 278 373 l 214 358 q 317 297 279 343 q 355 187 355 251 l 355 -17 q 382 -124 355 -89 q 472 -159 410 -159 l 512 -159 l 512 -288 l 378 -288 z "},"|":{"ha":388,"x_min":105,"x_max":283,"o":"m 105 -308 l 105 1006 l 283 1006 l 283 -308 l 105 -308 z "},"}":{"ha":540,"x_min":28,"x_max":519,"o":"m 28 -159 l 69 -159 q 158 -124 132 -159 q 184 -17 184 -89 l 184 187 q 223 296 184 249 q 325 358 261 343 l 325 361 q 223 421 263 375 q 184 532 184 467 l 184 736 q 157 843 184 808 q 69 877 131 877 l 28 877 l 28 1006 l 162 1006 q 310 954 256 1006 q 363 803 363 902 l 363 581 q 400 467 363 505 q 519 425 437 428 l 519 293 q 400 252 437 291 q 363 137 363 213 l 363 -85 q 309 -234 363 -181 q 162 -288 254 -288 l 28 -288 l 28 -159 z "},"~":{"ha":810,"x_min":55,"x_max":760,"o":"m 577 350 q 478 364 527 350 q 378 397 428 378 q 228 428 286 428 q 139 413 179 428 q 55 368 99 398 l 55 512 q 239 569 132 569 q 403 537 311 569 q 526 498 492 505 q 591 490 561 490 q 760 552 681 490 l 760 405 q 676 362 716 375 q 577 350 636 350 z "}," ":{"ha":368,"x_min":0,"x_max":0,"o":""},"¢":{"ha":771,"x_min":35,"x_max":741,"o":"m 398 231 q 499 268 459 231 q 549 371 539 305 l 741 365 q 650 192 726 261 q 453 109 574 122 l 453 -22 l 343 -22 l 343 107 q 116 214 197 122 q 35 465 35 306 q 115 718 35 622 q 343 830 194 813 l 343 955 l 453 955 l 453 830 q 642 754 567 817 q 735 589 716 691 l 544 579 q 495 674 534 641 q 397 708 457 708 q 269 646 313 708 q 226 472 226 584 q 271 292 226 353 q 398 231 316 231 z "},"©":{"ha":1022,"x_min":22,"x_max":1002,"o":"m 1002 480 q 937 235 1002 350 q 757 55 872 120 q 512 -10 643 -10 q 264 58 378 -10 q 85 238 149 126 q 22 480 22 351 q 88 725 22 611 q 268 904 154 838 q 512 971 382 971 q 758 904 644 971 q 937 725 872 838 q 1002 480 1002 612 m 927 480 q 871 685 927 591 q 719 836 815 780 q 512 892 622 892 q 310 839 405 892 q 158 690 216 786 q 100 480 100 594 q 156 273 100 370 q 306 120 211 176 q 512 65 402 65 q 720 120 622 65 q 872 273 817 176 q 927 480 927 370 m 368 480 q 408 339 368 388 q 520 289 448 289 q 600 315 566 289 q 654 387 634 340 l 763 355 q 664 232 723 269 q 520 194 606 194 q 319 269 390 194 q 248 480 248 343 q 316 690 248 617 q 515 763 385 763 q 663 725 604 763 q 755 607 721 686 l 648 579 q 597 643 629 621 q 519 666 566 666 q 407 618 445 666 q 368 480 368 571 z "},"®":{"ha":1022,"x_min":22,"x_max":1002,"o":"m 1002 480 q 937 235 1002 350 q 757 55 872 120 q 512 -10 643 -10 q 264 58 378 -10 q 85 238 149 126 q 22 480 22 351 q 88 725 22 611 q 268 904 154 838 q 512 971 382 971 q 758 904 644 971 q 937 725 872 838 q 1002 480 1002 612 m 927 480 q 871 685 927 591 q 719 836 815 780 q 512 892 622 892 q 310 839 405 892 q 158 690 216 786 q 100 480 100 594 q 156 273 100 370 q 306 120 211 176 q 512 65 402 65 q 720 120 622 65 q 872 273 817 176 q 927 480 927 370 m 626 201 l 505 413 l 427 413 l 427 201 l 305 201 l 305 755 l 529 755 q 684 710 633 755 q 736 591 736 666 q 704 487 736 527 q 617 430 671 447 l 763 201 l 626 201 m 614 589 q 588 648 614 628 q 515 668 562 668 l 427 668 l 427 500 l 524 500 q 592 525 569 500 q 614 589 614 549 z "},"¼":{"ha":1158,"x_min":64,"x_max":1093,"o":"m 1022 95 l 1022 0 l 899 0 l 899 95 l 664 95 l 664 196 l 879 489 l 1022 489 l 1022 191 l 1093 191 l 1093 95 l 1022 95 m 900 395 l 894 382 q 857 321 875 350 l 761 191 l 899 191 l 899 321 l 900 395 m 370 0 l 233 0 l 840 955 l 976 955 l 370 0 m 64 470 l 64 552 l 189 552 l 189 870 l 72 797 l 72 880 l 194 959 l 313 959 l 313 552 l 427 552 l 427 470 l 64 470 z "},"½":{"ha":1158,"x_min":64,"x_max":1093,"o":"m 694 -2 l 694 80 q 750 158 715 122 q 847 233 785 194 q 927 296 905 271 q 949 348 949 321 q 895 408 949 410 q 830 343 838 408 l 699 346 q 759 454 708 413 q 895 495 810 495 q 1034 458 984 495 q 1084 353 1084 420 q 981 201 1084 268 q 884 136 910 156 q 847 92 858 115 l 1093 92 l 1093 -2 l 694 -2 m 356 0 l 219 0 l 827 955 l 962 955 l 356 0 m 64 470 l 64 552 l 189 552 l 189 870 l 72 797 l 72 880 l 194 959 l 313 959 l 313 552 l 427 552 l 427 470 l 64 470 z "},"¾":{"ha":1158,"x_min":70,"x_max":1093,"o":"m 474 607 q 423 502 474 540 q 278 464 371 464 q 132 499 186 464 q 70 606 79 534 l 197 612 q 276 551 204 549 q 345 616 345 551 q 251 678 345 679 l 213 678 l 213 763 l 248 763 q 312 779 291 763 q 333 825 333 795 q 317 866 333 852 q 273 880 301 880 q 206 820 213 880 l 80 828 q 139 930 87 892 q 276 967 191 967 q 412 932 363 967 q 460 840 460 897 q 435 766 460 797 q 356 723 410 735 l 356 723 q 443 685 413 716 q 474 607 474 654 m 1022 95 l 1022 0 l 899 0 l 899 95 l 664 95 l 664 196 l 879 489 l 1022 489 l 1022 191 l 1093 191 l 1093 95 l 1022 95 m 900 395 l 894 382 q 857 321 875 350 l 761 191 l 899 191 l 899 321 l 900 395 m 370 0 l 233 0 l 840 955 l 976 955 l 370 0 z "},"×":{"ha":810,"x_min":59,"x_max":753,"o":"m 59 221 l 300 464 l 60 703 l 169 808 l 407 571 l 646 810 l 753 703 l 514 462 l 753 226 l 646 117 l 407 356 l 166 114 l 59 221 z "},"÷":{"ha":761,"x_min":33,"x_max":730,"o":"m 300 651 l 300 810 l 462 810 l 462 651 l 300 651 m 33 387 l 33 537 l 730 537 l 730 387 l 33 387 m 300 115 l 300 273 l 462 273 l 462 115 l 300 115 z "},"ॐ":{"ha":1044,"x_min":50,"x_max":977,"o":"m 815 689 q 977 425 977 689 q 927 213 977 291 q 790 134 877 134 q 704 172 730 134 q 679 300 679 209 l 679 346 q 633 435 679 435 q 532 393 594 435 q 614 192 614 281 q 561 52 614 102 q 420 2 509 2 q 172 131 278 2 q 50 448 67 259 l 82 459 q 195 186 109 291 q 392 80 281 80 q 492 124 450 80 q 534 229 534 167 q 442 437 534 343 q 330 341 395 371 l 289 440 q 433 581 433 482 q 343 658 433 658 q 206 619 278 658 l 166 716 q 297 745 223 745 q 424 690 371 745 q 477 549 477 636 q 460 479 477 512 l 482 459 q 641 539 566 539 q 663 537 648 539 q 815 689 691 689 m 688 527 q 723 448 723 509 l 723 336 q 795 219 723 219 q 894 275 853 219 q 934 416 934 331 q 897 552 934 500 q 803 604 860 604 q 688 527 725 604 m 361 845 l 390 865 q 527 790 448 790 q 661 865 606 790 l 743 798 q 577 711 663 711 q 361 845 448 711 m 542 967 l 604 904 l 542 843 l 480 909 l 542 967 z "},"॑":{"ha":0,"x_min":-358,"x_max":-279,"o":"m -279 1268 l -358 1268 l -358 1842 l -279 1842 l -279 1268 m -320 1069 z "},"॒":{"ha":0,"x_min":-884,"x_max":-80,"o":"m -490 -119 m -80 -564 l -884 -564 l -884 -495 l -80 -495 l -80 -564 m -490 236 z "},"।":{"ha":356,"x_min":149,"x_max":281,"o":"m 149 -102 l 149 726 l 281 726 l 281 -102 l 149 -102 z "},"॥":{"ha":678,"x_min":149,"x_max":602,"o":"m 149 726 l 281 726 l 281 -102 l 149 -102 l 149 726 m 469 726 l 602 726 l 602 -102 l 469 -102 l 469 726 z "},"ఁ":{"ha":459,"x_min":25,"x_max":425,"o":"m 425 596 l 425 487 q 226 447 284 512 q 166 302 166 385 q 202 169 166 219 q 297 109 239 119 q 408 117 355 99 l 408 5 q 341 -8 370 -10 q 110 85 194 -8 q 25 307 25 177 q 135 536 25 437 q 425 596 244 636 z "},"ం":{"ha":710,"x_min":25,"x_max":676,"o":"m 576 537 q 676 305 676 448 q 559 69 676 162 q 337 -8 460 -8 q 131 60 214 -8 q 25 305 25 144 q 161 556 25 467 q 371 614 261 614 q 576 537 482 614 m 484 177 q 546 301 546 238 q 502 418 546 365 q 359 487 447 487 q 218 433 271 487 q 166 301 166 378 q 216 174 166 224 q 345 124 266 124 q 484 177 423 124 z "},"ః":{"ha":358,"x_min":25,"x_max":325,"o":"m 286 569 q 325 484 325 537 q 279 385 325 432 q 184 346 238 346 q 99 363 131 346 q 30 475 30 403 q 74 571 30 530 q 181 611 117 611 q 286 569 244 611 m 177 261 q 209 261 177 261 q 280 226 241 261 q 320 135 320 191 q 274 40 320 79 q 177 -3 234 -3 q 94 13 120 -3 q 25 122 25 59 q 69 223 25 186 q 177 261 112 261 m 178 427 q 208 427 178 427 q 238 479 238 427 q 178 532 238 532 q 119 479 119 532 q 178 427 119 427 m 231 134 q 172 186 231 186 q 114 131 114 186 q 172 77 114 77 q 231 134 231 77 z "},"అ":{"ha":823,"x_min":25,"x_max":790,"o":"m 184 291 l 184 398 l 338 398 l 331 457 q 390 595 335 540 q 557 648 445 649 q 718 559 646 648 q 790 348 790 470 q 663 90 790 206 q 392 -8 554 -8 q 127 87 229 -8 q 25 356 25 182 q 52 470 25 402 q 122 582 79 539 q 306 656 196 656 l 306 530 q 206 478 261 546 q 163 308 151 410 q 231 162 176 206 q 412 115 301 115 q 592 187 522 115 q 663 363 663 259 q 616 489 663 435 q 539 530 576 530 q 462 467 462 530 q 525 413 462 413 l 542 413 l 544 291 l 184 291 z "},"ఆ":{"ha":788,"x_min":25,"x_max":755,"o":"m 755 261 q 597 45 755 136 q 389 -8 510 -8 q 172 52 268 -8 q 25 320 25 142 q 105 527 25 422 q 320 641 196 641 l 320 519 l 296 524 q 210 469 253 524 q 164 330 167 413 q 211 186 167 243 q 398 104 276 104 q 562 167 490 104 q 626 254 626 219 q 611 316 626 289 q 540 298 581 300 l 228 298 l 228 403 l 390 403 q 360 490 355 443 q 417 600 360 551 q 559 649 474 649 q 699 599 644 649 q 743 479 743 554 q 708 375 743 403 q 755 261 755 323 m 612 484 q 554 530 612 530 q 495 480 495 530 q 556 437 495 443 q 612 484 612 437 z "},"ఇ":{"ha":828,"x_min":25,"x_max":795,"o":"m 795 -59 l 634 -59 q 569 90 616 3 q 301 -8 430 -8 q 129 33 197 -8 q 40 194 40 87 q 137 326 40 271 q 326 375 229 375 q 564 268 423 375 q 599 401 599 335 q 574 509 599 467 q 510 544 547 544 q 447 484 447 544 q 464 412 447 447 l 316 412 q 288 499 321 465 q 229 529 264 529 q 174 457 174 529 q 194 407 174 433 l 25 400 l 25 443 q 60 561 25 500 q 216 651 112 651 q 303 648 261 654 q 377 606 340 634 q 512 669 417 669 q 664 588 607 669 q 721 399 721 507 q 653 191 721 291 q 795 -59 755 89 m 485 174 q 413 226 465 201 q 305 251 351 251 q 217 232 258 251 q 172 186 176 213 q 222 136 172 157 q 303 115 271 115 q 353 119 335 115 q 405 136 371 122 q 485 174 460 152 z "},"ఈ":{"ha":1260,"x_min":25,"x_max":1227,"o":"m 1227 197 q 1159 65 1227 120 q 1020 10 1091 10 q 894 67 949 10 q 845 201 845 122 q 855 261 845 228 l 765 261 q 648 71 746 154 q 410 -12 551 -12 q 179 72 269 -12 q 85 254 110 141 l 25 254 l 25 377 l 97 377 q 126 462 97 400 q 201 549 156 524 l 151 596 q 112 725 112 641 l 276 725 q 263 684 263 710 q 295 638 263 658 q 350 621 323 624 q 435 668 392 621 l 514 751 q 610 805 549 785 q 692 825 671 825 q 728 813 713 825 l 728 674 q 683 689 718 686 q 554 621 596 689 q 768 385 704 599 l 962 385 q 1049 514 1049 418 q 987 564 1049 564 q 925 517 925 564 l 939 484 l 818 484 l 817 505 l 815 540 q 852 631 815 587 q 991 691 902 691 q 1136 621 1079 691 q 1183 505 1183 564 q 1166 417 1183 447 l 1143 373 q 1227 197 1227 310 m 1098 201 q 1079 253 1098 228 q 1032 278 1061 278 q 984 254 1004 278 q 964 207 964 229 q 1032 137 964 137 q 1075 156 1056 137 q 1098 201 1094 176 m 644 375 q 435 505 599 505 q 248 375 303 505 l 644 375 m 633 256 l 239 256 q 294 175 233 223 q 427 127 355 127 q 633 256 566 127 z "},"ఉ":{"ha":892,"x_min":25,"x_max":858,"o":"m 858 216 q 791 64 858 137 q 619 -10 725 -10 q 477 65 514 -10 l 437 15 q 320 -12 405 -12 q 168 71 234 -12 q 102 249 102 154 l 102 286 l 25 286 l 25 403 l 124 403 q 204 520 187 504 q 387 621 281 604 l 387 823 l 514 823 l 514 628 q 725 556 644 628 q 791 447 783 504 l 663 447 q 490 519 617 519 q 266 403 326 519 l 524 403 l 524 286 l 243 286 l 234 249 q 259 164 234 209 q 336 119 284 119 q 407 157 387 119 q 417 236 417 192 l 574 236 q 566 177 566 229 q 651 114 566 114 q 707 141 684 114 q 730 197 730 167 q 721 242 730 228 q 689 269 713 256 q 626 283 664 283 l 626 398 q 668 402 636 402 l 704 398 q 817 333 766 398 q 858 216 858 268 z "},"ఊ":{"ha":1297,"x_min":25,"x_max":1263,"o":"m 833 263 q 842 194 842 226 q 781 48 842 100 q 618 -5 720 -5 q 484 72 517 -5 q 334 -10 448 -10 q 161 79 219 -10 q 117 238 117 149 q 122 301 117 289 l 25 301 l 25 418 l 147 418 q 176 494 147 447 q 298 609 214 562 l 298 822 l 417 822 l 417 648 l 443 649 l 474 651 l 474 820 l 594 820 l 594 646 q 775 480 756 602 l 651 480 q 516 544 606 544 q 370 508 427 544 q 298 418 313 472 l 986 418 q 1094 453 1056 418 q 1133 517 1133 489 q 1112 569 1133 546 q 1068 592 1091 592 q 1024 571 1044 592 q 1004 522 1004 551 l 1007 509 l 892 509 l 889 537 q 927 639 889 596 q 1066 694 979 694 q 1200 631 1153 694 q 1233 525 1233 577 q 1218 450 1233 474 l 1190 408 q 1243 355 1233 373 q 1263 245 1263 318 q 1200 115 1263 172 q 1060 57 1141 57 q 934 113 979 57 q 900 249 889 169 q 925 301 900 286 l 263 301 l 264 228 q 289 162 264 194 q 350 131 313 131 q 409 159 387 131 q 432 223 432 187 l 428 246 l 547 246 l 547 201 q 571 144 547 167 q 625 120 594 120 q 682 151 656 120 q 708 215 708 182 q 701 263 708 248 l 833 263 m 1146 238 q 1088 308 1146 298 q 1017 246 1017 308 q 1037 192 1017 213 q 1081 171 1058 172 q 1146 238 1146 171 z "},"ఋ":{"ha":1561,"x_min":25,"x_max":1528,"o":"m 698 75 q 495 -5 617 -5 q 432 12 460 -5 q 387 57 427 13 q 222 -8 316 -8 q 79 49 127 -8 q 28 177 28 97 q 182 366 28 316 l 248 385 q 278 433 278 400 q 219 487 278 487 q 139 407 139 487 l 25 407 q 228 606 25 606 q 352 560 305 606 q 400 436 400 514 q 338 315 400 358 l 224 264 q 164 186 164 236 q 185 141 164 161 q 243 120 206 120 q 320 177 306 120 q 321 202 321 187 q 318 233 321 218 l 452 233 l 452 201 q 483 145 452 164 q 542 122 514 126 q 630 182 594 122 q 666 304 666 241 q 627 423 666 366 q 525 480 587 480 q 477 469 504 480 l 477 602 l 532 606 q 712 519 639 606 q 785 293 785 432 l 785 273 l 810 196 q 902 124 842 124 q 999 182 962 124 q 1036 305 1036 241 q 1004 420 1036 370 q 895 487 964 487 l 847 485 l 847 606 l 904 609 q 1083 519 1011 609 q 1155 293 1155 428 l 1155 273 l 1181 196 q 1273 124 1213 124 q 1370 183 1334 124 q 1407 307 1407 243 q 1374 420 1407 371 q 1268 487 1335 487 l 1217 485 l 1217 606 l 1273 609 q 1454 519 1381 609 q 1528 300 1528 428 q 1447 80 1528 171 q 1251 -10 1365 -10 q 1074 64 1136 -10 l 1069 72 q 877 -10 989 -10 q 706 64 765 -10 l 698 75 z "},"ఌ":{"ha":947,"x_min":25,"x_max":914,"o":"m 914 363 q 845 102 914 204 q 610 -10 765 -10 q 400 85 455 -10 q 363 264 363 146 q 522 447 363 400 q 609 543 609 469 q 537 617 609 617 q 469 592 504 617 q 435 532 438 562 l 435 487 l 308 487 l 306 556 q 284 592 306 572 q 231 616 261 612 q 174 592 201 616 q 151 525 151 561 q 211 455 151 455 q 258 462 243 455 l 258 330 q 82 371 120 330 q 25 521 25 432 q 95 676 25 611 q 239 741 166 741 q 395 666 363 741 q 439 718 397 693 q 551 743 482 743 q 683 691 621 743 q 745 551 745 639 q 599 351 745 383 q 521 312 551 338 q 492 256 492 286 q 504 174 492 201 q 614 115 529 115 q 741 187 699 115 q 773 288 773 238 l 773 363 l 914 363 z "},"ఎ":{"ha":812,"x_min":25,"x_max":778,"o":"m 484 472 l 415 465 l 415 599 q 490 611 460 611 q 706 509 621 611 q 778 299 778 415 q 694 89 778 182 q 516 -5 611 -5 q 375 49 422 -5 q 223 -12 325 -12 q 72 52 122 -12 q 25 182 25 105 q 90 325 25 259 q 268 390 156 390 q 400 327 348 390 q 452 177 452 264 q 525 124 470 124 q 604 183 564 124 q 644 289 644 243 q 484 472 644 472 m 315 191 q 289 244 315 223 q 234 269 271 269 q 161 191 161 269 q 234 112 161 112 q 315 191 315 112 z "},"ఏ":{"ha":818,"x_min":25,"x_max":785,"o":"m 562 766 l 490 661 q 385 698 435 698 q 216 638 281 698 q 171 529 171 587 q 207 433 171 470 l 47 433 q 25 535 25 492 q 191 766 25 671 q 395 822 288 822 q 562 766 502 822 m 713 509 q 785 302 785 417 q 701 91 785 187 q 525 -5 617 -5 q 388 57 433 -5 q 224 -12 360 -12 q 79 50 132 -12 q 35 182 35 104 q 100 325 35 259 q 276 390 164 390 q 408 327 355 390 q 462 177 462 264 q 532 124 489 124 q 611 181 576 124 q 651 293 651 238 q 505 472 651 452 q 484 474 490 474 q 460 470 479 474 l 418 465 l 418 599 q 499 611 464 611 q 713 509 629 611 m 321 191 q 298 244 321 223 q 244 269 279 269 q 169 186 169 269 q 243 114 169 114 q 321 191 321 114 z "},"ఐ":{"ha":788,"x_min":25,"x_max":755,"o":"m 755 341 q 663 101 755 207 q 484 -5 572 -5 q 353 45 413 -5 l 301 8 q 207 -12 259 -12 q 67 60 120 -12 q 25 195 25 119 q 69 325 25 271 q 257 402 129 402 q 445 207 385 402 q 502 142 467 142 q 581 207 547 142 q 616 336 616 271 q 581 467 616 402 q 487 532 546 532 q 443 507 452 532 l 435 453 l 308 447 q 287 511 308 485 q 231 537 266 537 q 164 492 164 537 l 179 443 l 40 443 l 38 475 q 44 528 38 505 q 72 587 49 551 q 234 676 124 676 q 387 624 306 676 l 423 653 q 490 673 450 673 q 703 537 626 673 q 755 341 755 443 m 219 119 q 278 144 253 119 q 303 198 303 169 q 277 248 303 228 q 219 271 251 268 q 175 249 196 271 q 154 191 154 228 q 219 119 154 119 z "},"ఒ":{"ha":781,"x_min":25,"x_max":748,"o":"m 691 360 q 748 210 748 300 q 679 55 748 120 q 537 -10 609 -10 q 380 65 410 -10 q 338 12 377 38 q 223 -12 293 -12 q 91 38 154 -12 q 28 177 28 89 q 174 380 28 346 q 279 453 279 402 q 264 499 279 474 q 231 520 251 517 q 188 498 207 520 q 169 455 169 475 l 172 437 l 25 437 q 59 556 25 500 q 228 643 110 643 q 338 611 288 643 q 408 465 408 562 q 251 284 408 328 q 166 187 166 261 q 239 114 166 114 q 306 139 269 114 q 338 197 335 162 l 338 243 l 467 243 l 469 174 q 491 138 469 157 q 544 115 514 119 q 599 139 574 115 q 626 206 626 169 q 562 274 626 274 q 517 269 532 274 l 517 398 q 691 360 653 398 z "},"ఓ":{"ha":781,"x_min":25,"x_max":748,"o":"m 691 360 q 748 210 748 300 q 679 55 748 120 q 537 -10 609 -10 q 380 65 410 -10 q 338 12 377 38 q 223 -12 293 -12 q 91 38 154 -12 q 28 177 28 89 q 174 380 28 346 q 279 453 279 402 q 264 499 279 474 q 231 520 251 517 q 188 498 207 520 q 169 455 169 475 l 172 437 l 25 437 q 127 621 25 561 q 109 689 109 646 q 166 818 109 768 q 326 862 226 862 q 492 795 427 862 q 544 673 544 740 l 544 621 l 398 621 q 320 741 398 741 q 243 678 243 741 q 248 643 243 654 q 341 606 316 624 q 408 465 408 561 q 251 284 408 328 q 166 187 166 261 q 239 114 166 114 q 306 139 269 114 q 338 197 335 162 l 338 243 l 467 243 l 469 174 q 491 138 469 157 q 544 115 514 119 q 599 139 574 115 q 626 206 626 169 q 562 274 626 274 q 517 269 532 274 l 517 398 q 691 360 653 398 z "},"ఔ":{"ha":889,"x_min":25,"x_max":855,"o":"m 855 629 q 792 475 855 542 q 668 408 730 408 q 558 459 606 408 q 510 570 510 509 q 559 683 510 631 q 671 725 607 725 q 708 721 694 725 q 653 748 686 745 l 366 748 q 382 682 382 713 q 343 611 382 651 q 383 564 358 602 q 408 475 408 525 q 313 308 408 371 l 238 279 q 177 197 177 248 q 197 144 177 174 q 245 115 214 115 q 303 149 276 115 q 326 226 326 186 l 321 254 l 479 254 l 472 218 q 547 124 472 124 q 604 153 577 124 q 630 209 631 182 q 612 257 629 236 q 576 278 594 278 q 547 256 559 278 l 547 398 l 564 402 l 597 403 q 676 380 643 403 q 753 218 753 323 q 666 60 753 139 q 539 -7 589 -7 q 392 52 448 -7 q 213 -12 325 -12 q 83 50 139 -12 q 27 197 27 112 q 141 371 27 335 l 233 398 q 279 457 279 415 q 226 522 279 522 q 159 472 159 522 l 164 427 l 25 427 q 95 587 25 549 q 87 631 87 611 q 95 661 87 651 l 226 661 q 268 673 248 661 q 283 694 283 688 q 229 748 283 748 l 38 748 l 38 858 l 684 858 q 855 629 855 803 m 681 525 q 713 571 713 525 q 668 617 713 617 q 639 602 653 617 q 631 569 631 587 q 647 537 631 551 q 681 525 663 524 z "},"క":{"ha":671,"x_min":25,"x_max":638,"o":"m 418 609 q 601 440 601 582 l 467 440 q 408 492 452 474 q 372 505 390 504 q 326 507 355 507 q 197 422 197 507 q 313 366 197 366 l 371 382 q 477 395 425 395 q 601 343 557 395 q 638 248 638 306 q 535 59 626 127 q 326 -8 445 -8 q 92 75 176 -8 q 25 214 25 137 l 167 214 q 217 146 167 177 q 340 114 266 114 q 457 146 413 114 q 500 211 500 177 q 427 273 500 273 l 351 261 l 253 251 q 117 296 179 251 q 49 412 49 343 q 119 542 49 480 l 127 547 l 104 564 q 44 679 44 616 l 44 698 l 184 698 l 182 683 q 251 614 182 614 q 306 641 278 614 l 358 703 q 546 802 447 802 q 612 786 589 802 l 612 656 q 541 684 592 684 q 448 641 490 684 l 418 609 z "},"ఖ":{"ha":935,"x_min":25,"x_max":902,"o":"m 902 308 q 816 88 902 177 q 602 -2 730 -2 q 510 7 539 -2 q 425 69 480 15 q 345 17 393 35 q 202 -12 268 -12 q 84 23 136 -12 q 25 129 25 60 q 90 244 25 197 q 233 291 156 291 q 423 238 351 291 q 442 346 442 320 q 426 413 442 371 q 387 457 410 455 q 331 358 373 400 q 288 330 320 346 q 216 311 243 311 q 81 354 131 311 q 32 470 32 397 q 134 606 32 544 q 281 641 187 641 q 500 547 412 641 q 566 335 566 475 q 552 246 566 301 q 515 177 537 201 q 548 136 519 152 q 607 120 577 120 q 713 167 664 120 q 766 296 766 226 q 736 418 766 366 q 631 474 699 474 l 589 469 l 589 602 q 765 574 720 602 q 858 477 815 549 q 902 308 902 392 m 209 418 q 258 469 258 418 q 209 520 258 520 q 161 469 161 520 q 209 418 161 418 m 331 151 q 232 181 295 181 q 169 149 169 181 q 237 114 169 114 q 331 151 305 114 m 489 -159 l 351 -159 l 351 -8 l 489 -8 l 489 -159 z "},"గ":{"ha":708,"x_min":25,"x_max":674,"o":"m 479 594 q 620 465 566 559 q 674 271 674 371 q 617 94 674 171 q 522 5 561 17 l 517 8 l 450 114 l 450 120 q 540 288 540 192 q 500 420 540 365 q 363 489 452 489 q 223 423 274 489 q 171 261 171 358 q 175 197 171 219 q 190 161 179 176 q 256 99 201 146 l 259 94 q 179 -3 251 69 l 172 -3 q 25 281 25 54 q 120 509 25 412 l 151 535 l 139 540 q 74 651 74 586 l 75 676 l 224 676 q 219 656 219 673 q 244 622 219 639 q 293 602 269 606 l 325 609 q 360 629 345 614 l 412 684 q 581 768 489 768 q 656 753 624 768 l 656 617 q 585 641 631 641 q 479 594 539 641 z "},"ఘ":{"ha":1186,"x_min":25,"x_max":1153,"o":"m 234 112 q 291 134 268 112 q 315 189 315 156 q 289 244 315 223 q 234 269 271 269 q 161 191 161 269 q 234 112 161 112 m 1153 300 q 1153 235 1153 300 q 1073 80 1153 171 q 875 -10 992 -10 q 698 70 758 -10 q 515 -12 624 -12 q 375 49 430 -12 q 223 -12 325 -12 q 72 52 122 -12 q 25 185 25 105 q 79 320 25 264 q 251 390 136 390 q 392 325 333 390 q 452 177 452 259 q 524 124 470 124 q 611 175 577 124 q 644 289 644 226 q 467 472 644 472 l 467 602 q 599 588 544 611 q 701 512 654 566 q 778 296 778 418 l 778 288 l 808 196 q 907 124 838 124 q 997 183 961 124 q 1034 307 1034 243 q 1001 420 1034 371 q 894 487 962 487 l 842 485 l 842 609 l 900 609 q 1080 519 1007 609 q 1153 300 1153 428 m 571 710 q 532 716 557 716 q 443 673 484 716 l 363 579 q 186 514 295 514 q 72 557 115 514 q 27 661 27 596 l 161 661 q 211 617 161 617 q 303 676 261 617 l 375 780 q 515 838 428 838 q 571 823 547 838 l 571 710 m 442 -159 l 305 -159 l 305 -8 l 442 -8 l 442 -159 z "},"ఙ":{"ha":781,"x_min":25,"x_max":748,"o":"m 691 360 q 748 210 748 300 q 679 55 748 120 q 537 -10 609 -10 q 380 65 410 -10 q 338 12 377 38 q 223 -12 293 -12 q 91 38 154 -12 q 28 177 28 89 q 174 380 28 346 q 279 453 279 402 q 264 499 279 474 q 231 520 251 517 q 188 498 207 520 q 169 455 169 475 l 172 437 l 25 437 q 59 556 25 500 q 221 643 110 643 q 380 566 331 643 l 467 566 l 467 661 l 592 661 l 592 569 l 683 569 l 683 445 l 407 445 q 246 283 407 326 q 166 187 166 261 q 239 114 166 114 q 306 139 269 114 q 338 197 335 162 l 338 243 l 467 243 l 469 174 q 491 138 469 157 q 544 115 514 119 q 599 139 574 115 q 626 206 626 169 q 562 274 626 274 q 517 269 532 274 l 517 398 q 691 360 653 398 z "},"చ":{"ha":992,"x_min":25,"x_max":959,"o":"m 711 606 q 870 527 798 599 q 959 310 959 443 q 884 85 959 177 q 685 -8 808 -8 q 539 60 562 -8 q 387 -10 485 -10 q 223 58 288 -10 q 159 216 159 126 q 189 308 159 279 l 25 308 l 25 437 l 403 437 l 403 335 q 315 236 315 315 q 336 161 315 196 q 400 131 361 131 q 474 233 474 131 l 469 273 l 631 273 l 626 218 q 701 119 626 119 q 791 181 760 119 q 822 305 822 243 q 711 474 822 437 q 504 490 651 490 l 482 490 q 343 540 400 490 q 279 698 279 591 l 422 698 q 417 678 417 691 q 448 624 417 643 q 497 611 464 617 l 522 611 q 606 664 569 616 l 684 763 q 813 815 738 815 q 879 800 845 815 l 879 671 q 813 693 865 693 q 738 641 776 693 l 711 606 z "},"ఛ":{"ha":992,"x_min":25,"x_max":959,"o":"m 711 606 q 870 527 798 599 q 959 310 959 443 q 884 85 959 177 q 685 -8 808 -8 q 539 60 562 -8 q 387 -10 485 -10 q 223 58 288 -10 q 159 216 159 126 q 189 308 159 279 l 25 308 l 25 437 l 403 437 l 403 335 q 315 236 315 315 q 336 161 315 196 q 400 131 361 131 q 474 233 474 131 l 469 273 l 631 273 l 626 218 q 701 119 626 119 q 791 181 760 119 q 822 305 822 243 q 711 474 822 437 q 504 490 651 490 l 482 490 q 343 540 400 490 q 279 698 279 591 l 422 698 q 417 678 417 691 q 448 624 417 643 q 497 611 464 617 l 522 611 q 606 664 569 616 l 684 763 q 813 815 738 815 q 879 800 845 815 l 879 671 q 813 693 865 693 q 738 641 776 693 l 711 606 m 602 -159 l 467 -159 l 467 -8 l 602 -8 l 602 -159 z "},"జ":{"ha":790,"x_min":25,"x_max":756,"o":"m 485 186 q 546 114 485 120 q 596 134 572 114 q 616 183 616 156 q 609 218 616 211 l 597 238 l 750 238 q 755 177 756 206 q 699 49 755 104 q 544 -7 644 -7 q 390 60 450 -17 q 250 -10 331 -10 q 105 47 169 -10 q 45 192 45 105 q 114 316 45 278 l 234 360 q 301 435 301 382 q 244 494 301 494 q 174 402 174 494 l 25 402 q 100 555 25 489 q 257 621 174 621 q 390 566 340 621 q 448 469 395 562 q 524 415 480 415 q 575 432 552 415 q 597 475 597 448 q 532 529 597 529 q 490 524 507 529 l 467 512 l 467 646 q 636 633 597 646 q 745 484 745 597 q 673 353 745 400 q 540 305 612 305 q 403 335 469 305 q 286 268 390 305 q 201 186 201 236 q 222 141 201 159 q 271 120 243 124 q 360 218 353 120 l 490 218 l 485 186 z "},"ఝ":{"ha":1479,"x_min":25,"x_max":1446,"o":"m 349 122 q 388 122 349 122 q 486 173 427 122 q 546 306 546 224 q 490 435 546 388 q 356 485 435 485 q 224 433 278 485 q 171 305 171 385 q 219 171 171 226 q 349 122 271 122 m 1048 -159 l 909 -159 l 909 -8 l 1048 -8 l 1048 -159 m 674 238 l 698 187 q 791 124 731 124 q 889 183 852 124 q 925 305 925 243 q 889 427 925 366 q 785 487 853 487 l 761 487 l 736 485 l 736 606 l 763 606 l 793 609 q 971 519 894 609 q 1049 289 1049 428 q 1044 236 1049 253 q 1195 124 1073 124 q 1287 182 1245 124 q 1329 304 1329 241 q 1295 420 1329 366 q 1186 487 1255 487 l 1161 487 l 1136 485 l 1136 606 l 1166 606 l 1195 609 q 1372 519 1299 609 q 1446 298 1446 428 q 1365 79 1446 167 q 1173 -10 1283 -10 q 974 90 1034 -10 q 775 -10 892 -10 q 592 64 658 -10 l 577 82 q 333 -8 472 -8 q 110 85 194 -8 q 25 307 25 177 q 127 525 25 437 q 59 678 59 579 l 204 678 q 228 628 197 646 q 296 609 259 609 l 313 611 q 382 653 343 616 l 452 741 q 584 786 505 786 q 651 765 624 786 l 651 638 q 584 661 619 661 q 467 599 527 661 q 589 524 539 576 q 681 301 681 437 l 674 238 z "},"ఞ":{"ha":1180,"x_min":25,"x_max":1146,"o":"m 621 72 q 381 -10 524 -10 q 168 30 238 -10 q 99 142 99 70 q 356 306 99 273 l 417 310 q 592 259 504 310 q 626 360 626 303 q 606 462 626 417 q 546 512 581 512 q 489 481 510 512 q 469 413 469 450 l 472 382 l 313 382 q 224 504 313 504 q 177 443 177 504 q 211 361 172 383 l 40 361 q 25 432 25 407 q 88 565 25 509 q 229 631 151 621 q 289 629 268 631 q 326 617 311 628 l 392 577 q 456 624 428 612 q 539 636 484 636 q 713 559 643 636 q 776 378 776 489 l 830 378 l 830 472 l 981 472 l 981 382 l 1146 382 l 1146 254 l 996 254 l 996 154 l 833 154 l 833 254 l 776 244 l 736 176 l 827 22 l 711 -62 l 621 72 m 514 146 q 382 197 450 197 q 331 194 350 197 l 289 182 q 263 162 269 177 l 259 151 q 288 117 259 132 q 352 101 316 102 q 395 100 388 100 q 514 146 455 100 z "},"ట":{"ha":872,"x_min":25,"x_max":838,"o":"m 838 335 q 761 100 838 204 q 576 -3 683 -3 q 423 82 469 -3 q 271 -10 375 -10 q 96 86 167 -10 q 25 298 25 182 q 74 505 25 413 q 196 624 124 597 l 196 820 l 335 820 l 335 636 q 372 607 353 621 q 398 584 392 594 q 442 454 442 530 q 377 323 442 378 q 234 268 311 268 q 152 320 172 279 q 188 173 152 224 q 270 122 224 122 q 344 163 316 122 q 371 246 371 204 l 505 246 q 576 141 505 141 q 666 198 626 141 q 706 320 706 256 q 668 438 706 385 q 569 492 626 492 l 519 489 l 519 622 q 567 629 542 629 q 786 517 713 629 q 838 335 838 432 m 320 462 q 303 500 320 484 q 264 520 286 517 q 228 503 246 520 q 211 462 211 485 q 264 400 211 400 q 300 418 284 400 q 320 462 316 437 z "},"ఠ":{"ha":715,"x_min":25,"x_max":681,"o":"m 349 122 q 388 122 349 122 q 486 173 427 122 q 546 306 546 224 q 490 435 546 388 q 356 485 435 485 q 224 433 278 485 q 171 305 171 385 q 219 171 171 226 q 349 122 271 122 m 59 678 l 204 678 q 228 628 197 646 q 296 609 259 609 l 313 611 q 382 653 343 616 l 452 741 q 584 786 505 786 q 651 765 624 786 l 651 638 q 584 661 619 661 q 467 599 527 661 q 589 524 539 576 q 681 305 681 437 q 576 82 681 172 q 333 -8 472 -8 q 110 85 194 -8 q 25 307 25 177 q 127 525 25 437 q 59 678 59 579 m 355 243 q 298 305 298 243 q 306 335 298 321 q 358 363 321 363 q 394 351 373 363 q 415 311 415 338 q 408 269 415 284 q 355 243 393 243 z "},"డ":{"ha":783,"x_min":25,"x_max":750,"o":"m 25 281 q 177 569 25 484 l 172 576 q 110 693 110 628 l 112 713 l 253 713 l 249 694 q 321 629 249 629 q 377 654 345 629 l 432 716 q 624 822 522 822 q 691 805 656 822 l 691 673 q 617 698 669 698 q 520 653 564 698 l 482 611 l 644 611 l 644 500 l 356 500 q 201 437 258 500 q 152 297 152 378 q 182 168 152 216 q 263 120 211 120 q 316 154 288 120 q 338 229 338 192 l 335 254 l 472 254 l 469 226 q 546 132 469 132 q 606 166 579 132 q 633 234 633 199 q 609 291 633 269 q 569 316 594 311 q 504 301 522 316 l 504 438 q 571 447 532 447 q 648 420 609 447 q 750 238 750 358 q 676 45 750 117 q 528 -10 611 -10 q 390 60 445 -10 q 238 -12 338 -12 q 40 174 95 -12 q 25 281 25 226 z "},"ఢ":{"ha":783,"x_min":25,"x_max":750,"o":"m 25 281 q 177 569 25 484 l 172 576 q 110 693 110 628 l 112 713 l 253 713 l 249 694 q 321 629 249 629 q 377 654 345 629 l 432 716 q 624 822 522 822 q 691 805 656 822 l 691 673 q 617 698 669 698 q 520 653 564 698 l 482 611 l 644 611 l 644 500 l 356 500 q 201 437 258 500 q 152 297 152 378 q 182 168 152 216 q 263 120 211 120 q 316 154 288 120 q 338 229 338 192 l 335 254 l 472 254 l 469 226 q 546 132 469 132 q 606 166 579 132 q 633 234 633 199 q 609 291 633 269 q 569 316 594 311 q 504 301 522 316 l 504 438 q 571 447 532 447 q 648 420 609 447 q 750 238 750 358 q 676 45 750 117 q 528 -10 611 -10 q 390 60 445 -10 q 238 -12 338 -12 q 40 174 95 -12 q 25 281 25 226 m 462 -159 l 323 -159 l 323 -8 l 462 -8 l 462 -159 z "},"ణ":{"ha":798,"x_min":25,"x_max":765,"o":"m 716 505 q 765 303 765 413 q 720 100 765 192 q 540 -10 658 -10 q 411 33 465 -10 q 356 153 356 75 q 402 279 356 231 q 533 328 448 328 q 638 296 617 328 q 633 367 638 336 q 607 430 628 398 q 522 489 579 489 q 460 418 460 489 l 330 418 q 298 484 330 453 q 243 507 269 507 q 166 453 166 507 q 185 410 166 430 q 225 390 204 390 q 259 397 246 390 l 259 286 l 244 288 q 184 261 211 288 q 157 195 157 231 q 185 140 157 159 q 240 120 213 120 q 281 127 268 120 l 281 2 q 209 -8 244 -8 q 79 38 134 -8 q 27 159 27 85 q 95 323 27 286 q 25 442 25 361 q 90 568 25 522 q 238 614 156 614 q 382 556 321 614 q 543 611 432 611 q 716 505 654 611 m 599 161 q 581 208 599 186 q 538 232 562 231 q 490 211 514 233 q 472 164 472 186 q 539 99 472 99 q 599 161 599 99 z "},"త":{"ha":862,"x_min":25,"x_max":828,"o":"m 256 318 q 202 366 256 366 q 161 353 182 366 q 161 288 131 311 q 202 273 177 274 q 256 318 256 273 m 661 348 q 645 387 661 366 q 610 407 629 407 q 574 392 591 407 q 554 353 557 377 q 601 303 554 303 q 661 348 661 303 m 691 233 q 569 194 621 194 q 475 233 517 194 q 433 329 433 273 q 479 430 433 385 q 587 465 510 465 q 505 489 557 484 l 390 494 l 351 492 q 213 540 274 492 q 166 605 179 567 q 152 701 152 643 l 293 701 q 288 678 288 693 q 320 628 288 646 q 389 611 346 611 q 479 666 432 611 l 556 763 q 684 818 609 818 q 750 802 716 818 l 750 673 q 691 694 736 694 q 609 641 646 694 l 581 604 q 693 547 639 591 q 760 450 746 504 q 828 296 828 383 q 695 75 828 159 q 406 -8 562 -8 q 139 72 249 -8 q 25 284 25 159 q 67 400 25 353 q 219 465 119 465 q 325 428 284 465 q 366 332 366 392 q 327 232 366 273 q 247 191 288 191 q 174 213 206 191 q 257 140 182 179 q 420 100 331 100 q 562 127 509 100 q 691 233 629 156 z "},"థ":{"ha":786,"x_min":25,"x_max":753,"o":"m 574 437 q 398 505 509 505 q 238 434 316 505 q 161 256 161 363 q 182 172 161 211 q 248 132 204 132 q 321 269 321 132 l 455 269 l 450 216 q 524 127 465 127 q 592 167 571 127 q 626 304 626 229 q 574 437 626 378 m 699 638 q 618 646 671 646 q 499 596 566 646 q 658 519 596 577 q 753 279 753 435 q 681 75 753 161 q 495 -10 609 -10 q 385 60 442 -10 q 237 -12 323 -12 q 88 69 151 -12 q 25 264 25 151 q 139 520 25 428 l 169 542 q 117 688 117 586 l 256 688 l 251 666 q 326 611 251 611 q 408 646 366 611 l 470 711 q 529 761 500 748 q 617 775 557 775 q 699 760 676 775 l 699 638 m 392 420 q 447 361 447 420 q 388 303 447 303 q 330 363 330 303 q 341 400 330 380 q 392 420 353 420 m 443 -159 l 306 -159 l 306 -8 l 443 -8 l 443 -159 z "},"ద":{"ha":786,"x_min":25,"x_max":753,"o":"m 574 437 q 398 505 509 505 q 238 434 316 505 q 161 256 161 363 q 182 172 161 211 q 248 132 204 132 q 321 269 321 132 l 455 269 l 450 216 q 524 127 465 127 q 592 167 571 127 q 626 304 626 229 q 574 437 626 378 m 699 638 q 618 646 671 646 q 499 596 566 646 q 658 519 596 577 q 753 279 753 435 q 681 75 753 161 q 495 -10 609 -10 q 385 60 442 -10 q 237 -12 323 -12 q 88 69 151 -12 q 25 264 25 151 q 139 520 25 428 l 169 542 q 117 688 117 586 l 256 688 l 251 666 q 326 611 251 611 q 408 646 366 611 l 470 711 q 529 761 500 748 q 617 775 557 775 q 699 760 676 775 l 699 638 z "},"ధ":{"ha":786,"x_min":25,"x_max":753,"o":"m 574 437 q 398 505 509 505 q 238 434 316 505 q 161 256 161 363 q 182 172 161 211 q 248 132 204 132 q 321 269 321 132 l 455 269 l 450 216 q 524 127 465 127 q 592 167 571 127 q 626 304 626 229 q 574 437 626 378 m 699 638 q 618 646 671 646 q 499 596 566 646 q 658 519 596 577 q 753 279 753 435 q 681 75 753 161 q 495 -10 609 -10 q 385 60 442 -10 q 237 -12 323 -12 q 88 69 151 -12 q 25 264 25 151 q 139 520 25 428 l 169 542 q 117 688 117 586 l 256 688 l 251 666 q 326 611 251 611 q 408 646 366 611 l 470 711 q 529 761 500 748 q 617 775 557 775 q 699 760 676 775 l 699 638 m 443 -159 l 306 -159 l 306 -8 l 443 -8 l 443 -159 z "},"న":{"ha":802,"x_min":25,"x_max":768,"o":"m 651 542 q 768 308 768 448 q 679 78 768 167 q 484 -12 591 -12 q 351 38 407 -12 q 296 171 296 89 l 298 206 l 303 244 q 256 305 303 305 q 192 274 214 305 q 171 201 171 243 q 293 2 171 102 l 129 2 q 69 64 104 13 q 35 177 35 115 q 96 348 35 281 q 261 415 157 415 q 430 206 430 415 q 499 126 430 126 q 591 184 552 126 q 629 291 629 243 q 440 475 629 475 l 351 472 l 278 469 q 25 674 25 469 l 156 674 q 177 617 151 646 q 239 587 204 587 q 336 638 298 587 l 415 740 q 571 790 474 790 l 639 790 l 639 648 q 571 661 612 661 q 442 587 487 661 l 487 592 q 651 542 591 592 z "},"ప":{"ha":812,"x_min":25,"x_max":778,"o":"m 701 512 q 778 295 778 418 q 704 79 778 171 q 515 -12 629 -12 q 375 49 430 -12 q 223 -12 325 -12 q 72 52 122 -12 q 25 185 25 105 q 79 320 25 264 q 251 390 136 390 q 392 325 333 390 q 452 177 452 259 q 524 124 470 124 q 611 175 577 124 q 644 289 644 226 q 467 472 644 472 l 467 611 q 599 588 544 611 q 701 512 654 566 m 234 112 q 291 134 268 112 q 315 189 315 156 q 289 244 315 223 q 234 269 271 269 q 161 191 161 269 q 234 112 161 112 m 571 710 q 532 716 557 716 q 443 673 484 716 l 363 579 q 186 514 295 514 q 72 557 115 514 q 27 661 27 596 l 161 661 q 211 617 161 617 q 303 676 261 617 l 375 780 q 515 838 428 838 q 571 823 547 838 l 571 710 z "},"ఫ":{"ha":812,"x_min":25,"x_max":778,"o":"m 701 512 q 778 295 778 418 q 704 79 778 171 q 515 -12 629 -12 q 375 49 430 -12 q 223 -12 325 -12 q 72 52 122 -12 q 25 185 25 105 q 79 320 25 264 q 251 390 136 390 q 392 325 333 390 q 452 177 452 259 q 524 124 470 124 q 611 175 577 124 q 644 289 644 226 q 467 472 644 472 l 467 611 q 599 588 544 611 q 701 512 654 566 m 234 112 q 291 134 268 112 q 315 189 315 156 q 289 244 315 223 q 234 269 271 269 q 161 191 161 269 q 234 112 161 112 m 442 -157 l 305 -157 l 305 -8 l 442 -8 l 442 -157 m 571 710 q 532 716 557 716 q 443 673 484 716 l 363 579 q 186 514 295 514 q 72 557 115 514 q 27 661 27 596 l 161 661 q 211 617 161 617 q 303 676 261 617 l 375 780 q 515 838 428 838 q 571 823 547 838 l 571 710 z "},"బ":{"ha":818,"x_min":25,"x_max":785,"o":"m 532 606 q 712 519 639 606 q 785 298 785 432 q 703 79 785 164 q 495 -5 621 -5 q 432 12 460 -5 q 387 57 427 13 q 222 -8 316 -8 q 79 49 127 -8 q 28 177 28 97 q 182 366 28 316 l 248 385 q 278 433 278 400 q 219 487 278 487 q 139 407 139 487 l 25 407 q 228 606 25 606 q 352 560 305 606 q 400 436 400 514 q 338 315 400 358 l 224 264 q 164 186 164 236 q 185 141 164 161 q 243 120 206 120 q 320 177 306 120 q 321 202 321 187 q 318 233 321 218 l 452 233 l 452 201 q 483 145 452 164 q 542 122 514 126 q 630 182 594 122 q 666 304 666 241 q 627 423 666 366 q 525 480 587 480 q 477 469 504 480 l 477 602 l 532 606 z "},"భ":{"ha":838,"x_min":25,"x_max":805,"o":"m 479 691 l 474 671 q 489 633 474 649 q 574 649 524 587 q 612 696 596 679 q 639 726 628 713 q 745 768 686 768 q 800 753 768 768 l 805 746 l 805 649 q 793 641 797 641 l 766 656 q 738 664 763 658 q 671 617 706 664 l 639 584 q 785 293 785 489 q 703 79 785 164 q 495 -5 621 -5 q 432 12 460 -5 q 387 57 427 13 q 222 -8 316 -8 q 79 49 127 -8 q 28 177 28 97 q 182 366 28 316 l 248 385 q 278 433 278 400 q 219 487 278 487 q 139 407 139 487 l 25 407 q 228 606 25 606 q 352 560 305 606 q 400 436 400 514 q 338 315 400 358 l 224 264 q 164 186 164 236 q 185 141 164 161 q 243 120 206 120 q 320 177 306 120 q 321 202 321 187 q 318 233 321 218 l 452 233 l 452 201 q 483 145 452 164 q 542 122 514 126 q 630 182 594 122 q 666 308 666 241 q 574 487 666 427 q 490 512 547 507 l 477 517 q 398 559 430 522 q 356 683 356 602 l 356 691 l 479 691 m 443 -159 l 306 -159 l 306 -8 l 443 -8 l 443 -159 z "},"మ":{"ha":1143,"x_min":25,"x_max":1109,"o":"m 313 191 q 243 281 313 281 q 157 206 157 281 q 229 119 157 119 q 286 140 259 119 q 313 191 313 161 m 666 54 q 480 -13 599 -13 q 351 49 395 -13 q 216 -10 311 -10 q 95 40 147 -10 q 27 189 27 95 q 90 340 27 283 q 238 397 152 397 q 387 341 325 397 q 448 174 448 286 q 500 127 472 127 q 587 177 554 127 q 619 284 619 228 q 561 427 619 370 q 418 484 504 484 q 324 473 387 484 q 226 462 261 462 q 80 519 139 462 q 37 584 49 547 q 25 674 25 621 l 161 674 q 176 619 157 646 q 240 592 194 592 q 340 649 286 592 l 433 761 q 579 820 497 820 q 631 813 616 820 l 631 668 q 566 693 591 691 q 447 606 490 693 q 750 248 750 606 l 750 233 l 763 196 q 863 124 797 124 q 951 183 914 124 q 989 305 989 243 q 959 420 989 366 q 852 487 915 487 l 800 485 l 800 606 l 857 609 q 1037 520 964 609 q 1109 300 1109 432 q 1027 79 1109 169 q 838 -10 945 -10 q 666 54 730 -10 z "},"య":{"ha":1545,"x_min":25,"x_max":1511,"o":"m 490 169 q 554 304 554 219 q 495 439 554 388 q 358 490 437 490 q 223 438 279 490 q 166 304 166 385 q 214 167 166 223 q 351 117 269 117 q 490 169 432 117 m 1511 298 q 1511 233 1511 298 q 1430 79 1511 167 q 1233 -10 1349 -10 q 1053 72 1118 -10 q 865 -10 974 -10 q 621 136 703 -10 q 341 -8 515 -8 q 110 85 194 -8 q 25 307 25 177 q 129 525 25 437 q 362 614 233 614 q 582 529 492 614 q 681 320 681 437 q 756 179 725 216 q 869 124 802 124 q 979 186 937 124 q 1017 304 1017 236 q 984 420 1017 371 q 875 485 947 485 l 756 489 l 745 489 q 607 537 668 489 q 546 696 546 587 l 686 696 q 683 674 683 689 q 714 623 683 641 q 776 606 745 606 q 872 661 827 606 l 950 760 q 1078 813 1001 813 q 1145 798 1109 813 l 1145 669 q 1084 691 1130 691 q 1002 638 1039 691 l 967 592 q 1063 517 1022 567 q 1136 293 1136 428 l 1135 249 q 1153 213 1143 228 q 1163 196 1163 197 q 1257 124 1198 124 q 1354 186 1315 124 q 1389 305 1389 238 q 1357 420 1389 371 q 1252 487 1317 487 l 1201 485 l 1201 606 l 1257 609 q 1437 519 1364 609 q 1511 298 1511 428 z "},"ర":{"ha":715,"x_min":25,"x_max":681,"o":"m 349 122 q 388 122 349 122 q 486 173 427 122 q 546 306 546 224 q 490 435 546 388 q 356 485 435 485 q 224 433 278 485 q 171 305 171 385 q 219 171 171 226 q 349 122 271 122 m 59 678 l 204 678 q 228 628 197 646 q 296 609 259 609 l 313 611 q 382 653 343 616 l 452 741 q 584 786 505 786 q 651 765 624 786 l 651 638 q 584 661 619 661 q 467 599 527 661 q 589 524 539 576 q 681 305 681 437 q 576 82 681 172 q 333 -8 472 -8 q 110 85 194 -8 q 25 307 25 177 q 127 525 25 437 q 59 678 59 579 z "},"ఱ":{"ha":860,"x_min":25,"x_max":827,"o":"m 775 509 q 827 295 827 420 q 757 80 827 169 q 579 -8 688 -8 q 405 65 470 -8 q 238 -8 382 -8 q 85 69 146 -8 q 25 268 25 146 q 75 492 25 390 q 251 617 136 617 q 348 580 305 617 q 392 490 392 542 q 348 356 392 408 l 432 356 q 417 432 417 397 q 466 560 417 509 q 592 611 515 611 q 775 509 708 611 m 248 296 q 213 286 234 286 q 176 298 192 286 l 169 249 q 195 149 169 196 q 274 102 221 102 q 350 199 350 102 l 495 199 l 495 172 q 564 115 495 115 q 666 176 633 115 q 699 308 699 236 q 671 428 699 380 q 584 489 639 489 q 534 434 534 489 q 596 360 534 380 l 596 233 l 248 233 l 248 296 m 244 402 q 289 454 289 402 q 244 507 289 507 q 196 454 196 507 q 244 402 196 402 z "},"ల":{"ha":788,"x_min":25,"x_max":755,"o":"m 755 311 q 643 73 755 159 q 388 -13 532 -13 q 112 90 207 -13 q 25 330 25 182 q 84 529 25 448 q 264 606 144 606 q 368 557 330 606 q 410 442 410 512 q 363 323 410 371 q 255 274 316 274 q 156 308 194 274 q 229 159 156 211 q 389 117 295 117 q 554 159 484 117 q 634 314 634 213 q 591 450 634 415 q 480 487 547 485 l 480 599 q 572 596 525 614 q 658 544 619 577 q 755 311 755 464 m 296 445 q 281 490 296 467 q 238 512 264 512 q 199 499 213 512 q 182 453 186 487 q 234 383 182 383 q 296 445 289 383 z "},"ళ":{"ha":802,"x_min":25,"x_max":768,"o":"m 505 197 q 370 261 505 261 q 320 259 335 261 q 281 244 306 256 q 234 182 234 224 q 363 99 234 99 q 453 124 417 99 q 505 197 505 151 m 219 490 q 205 524 219 510 q 171 537 191 537 q 127 484 127 530 q 176 443 127 443 q 219 490 226 448 m 450 517 l 435 514 q 319 559 366 514 q 271 669 271 604 l 274 691 l 274 694 l 408 694 l 408 689 l 407 661 q 447 616 407 616 q 546 696 472 616 q 624 776 594 756 q 700 805 663 805 q 768 793 738 805 l 768 661 q 715 686 746 686 q 666 671 683 686 q 633 634 663 668 l 602 602 q 653 556 633 591 q 674 469 674 522 q 571 323 674 395 q 616 215 616 289 q 579 90 616 141 q 351 -12 504 -12 q 181 37 248 -12 q 114 175 114 85 q 184 311 114 264 q 79 366 120 323 q 25 489 25 413 q 172 628 25 628 q 268 595 233 628 q 303 515 303 562 q 294 448 303 469 q 239 395 284 427 q 365 361 295 361 q 503 391 435 361 q 571 462 571 420 q 499 517 571 517 l 450 517 z "},"ఴ":{"ha":852,"x_min":25,"x_max":818,"o":"m 244 402 q 289 454 289 402 q 244 507 289 507 q 196 454 196 507 q 244 402 196 402 m 599 402 q 648 454 648 402 q 599 507 648 507 q 554 454 554 507 q 599 402 554 402 m 423 85 q 238 -8 382 -8 q 85 69 146 -8 q 25 268 25 146 q 75 492 25 390 q 251 617 136 617 q 348 580 305 617 q 392 490 392 542 q 355 357 392 408 q 269 296 318 306 q 176 298 219 286 q 184 164 147 226 q 274 102 221 102 q 350 199 350 102 l 495 199 q 571 102 495 102 q 661 164 624 102 q 668 298 698 226 q 576 296 626 286 q 489 357 525 306 q 452 490 452 408 q 495 580 452 542 q 592 617 539 617 q 768 492 708 617 q 818 268 818 390 q 759 69 818 146 q 607 -8 699 -8 q 423 85 462 -8 z "},"వ":{"ha":783,"x_min":25,"x_max":750,"o":"m 750 248 q 663 50 750 131 q 480 -13 591 -13 q 351 49 395 -13 q 216 -10 311 -10 q 95 40 147 -10 q 27 189 27 95 q 90 340 27 283 q 238 397 152 397 q 387 341 325 397 q 448 174 448 286 q 500 127 472 127 q 587 177 554 127 q 619 284 619 228 q 561 427 619 370 q 418 484 504 484 q 324 473 387 484 q 226 462 261 462 q 80 519 139 462 q 37 584 49 547 q 25 674 25 621 l 161 674 q 176 619 157 646 q 240 592 194 592 q 340 649 286 592 l 433 761 q 579 820 497 820 q 631 813 616 820 l 631 668 q 566 693 591 691 q 447 606 490 693 q 750 248 750 606 m 313 191 q 243 281 313 281 q 157 206 157 281 q 229 119 157 119 q 286 140 259 119 q 313 191 313 161 z "},"శ":{"ha":755,"x_min":25,"x_max":721,"o":"m 574 218 q 539 294 574 261 q 460 326 504 326 q 386 295 417 326 q 355 217 355 263 q 390 139 355 171 q 467 107 425 107 q 574 218 574 107 m 499 447 q 554 432 529 445 q 579 467 577 438 q 515 517 579 517 l 405 517 l 373 514 q 259 559 306 514 q 211 669 211 604 l 211 691 l 214 694 l 343 694 l 348 689 l 345 661 q 387 616 345 616 q 484 696 413 616 q 656 795 566 795 q 721 780 689 795 l 721 649 q 653 673 698 673 q 572 634 607 673 l 551 611 l 577 611 q 663 569 624 611 q 703 477 703 527 q 683 418 703 450 l 644 373 q 684 311 661 338 q 710 218 710 271 q 637 52 710 115 q 449 -12 564 -12 q 266 57 335 -12 q 211 191 211 117 q 259 335 211 264 q 154 211 154 335 q 176 136 154 162 l 38 136 q 25 204 25 156 q 126 382 25 321 q 397 443 226 443 l 450 447 l 499 447 z "},"ష":{"ha":862,"x_min":25,"x_max":828,"o":"m 768 194 q 753 25 753 89 q 828 -134 753 -107 q 679 -194 723 -194 q 626 -38 626 -151 q 626 -2 626 -20 q 633 28 631 20 l 581 3 q 499 -12 546 -12 q 363 57 397 -12 q 227 -8 315 -8 q 82 56 139 -8 q 25 207 25 120 q 87 356 25 293 q 253 418 149 418 q 445 254 385 418 q 460 177 460 216 q 526 127 484 127 q 607 177 569 127 q 644 290 644 229 q 617 395 644 351 q 529 453 584 453 l 484 453 l 484 596 q 540 602 499 602 q 701 524 639 602 q 768 259 768 432 l 768 194 m 311 213 q 244 291 311 291 q 171 212 171 291 q 244 132 171 132 q 286 159 261 132 q 311 213 311 186 m 574 710 q 537 716 561 716 q 447 673 487 716 l 368 579 q 189 514 298 514 q 75 557 119 514 q 30 661 30 596 l 166 661 q 215 617 166 617 q 306 676 264 617 l 380 780 q 519 838 432 838 q 574 823 552 838 l 574 710 z "},"స":{"ha":818,"x_min":25,"x_max":785,"o":"m 480 602 q 705 520 626 602 q 785 317 785 437 q 730 112 785 197 q 514 -13 654 -13 q 351 60 400 -13 q 306 197 340 80 q 231 271 283 271 q 171 186 171 271 q 206 72 171 122 l 264 -8 l 99 -8 q 25 175 25 85 q 79 333 25 264 q 256 402 134 402 q 398 330 348 402 l 452 197 q 527 124 480 124 q 617 174 574 124 q 658 295 658 229 q 615 412 658 360 q 514 464 572 464 l 480 457 l 480 602 m 571 710 q 532 716 557 716 q 443 673 484 716 l 363 579 q 186 514 295 514 q 72 557 115 514 q 27 661 27 596 l 161 661 q 211 617 161 617 q 303 676 261 617 l 375 780 q 515 838 428 838 q 571 823 547 838 l 571 710 z "},"హ":{"ha":1257,"x_min":25,"x_max":1223,"o":"m 572 710 q 534 716 559 716 q 445 673 485 716 l 366 579 q 187 514 296 514 q 74 557 117 514 q 28 661 28 596 l 164 661 q 213 617 164 617 q 305 676 263 617 l 377 780 q 517 838 430 838 q 572 823 551 838 l 572 710 m 1068 281 q 1010 330 1068 330 q 952 278 952 330 q 1007 218 952 218 q 1068 281 1068 218 m 234 112 q 291 134 268 112 q 315 189 315 156 q 291 246 315 223 q 234 269 268 269 q 159 191 159 269 q 234 112 159 112 m 725 492 q 780 263 780 405 q 704 78 780 167 q 504 -12 628 -12 q 375 49 427 -12 q 221 -12 321 -12 q 73 47 120 -12 q 25 187 25 105 q 77 320 25 268 q 249 390 137 390 q 392 325 331 390 q 452 177 452 259 q 519 132 467 132 l 537 132 q 612 181 576 132 q 649 285 649 229 q 616 410 649 341 q 510 492 572 492 l 464 492 l 464 612 l 812 612 q 1068 596 1024 612 q 1223 336 1223 535 q 1156 165 1223 243 q 989 87 1089 87 q 869 137 920 87 q 818 264 818 187 q 869 392 818 340 q 1016 443 920 443 l 1076 437 q 997 482 1048 472 q 830 492 947 492 l 725 492 z "},"ఽ":{"ha":1096,"x_min":25,"x_max":1063,"o":"m 117 646 q 328 691 192 691 q 551 623 464 691 q 639 445 639 556 q 538 288 639 353 q 295 223 437 223 q 215 204 248 223 q 182 162 182 186 q 206 126 182 139 q 263 112 229 112 l 1063 112 l 1063 -8 l 243 -8 q 90 40 152 -8 q 25 156 25 85 q 100 278 25 226 q 277 326 177 326 q 442 361 377 326 q 507 445 507 395 q 488 503 507 475 q 433 546 469 530 q 383 431 445 482 q 238 380 321 380 q 99 422 154 380 q 44 534 44 467 q 117 646 44 601 m 202 492 q 251 475 224 475 q 296 493 278 475 q 315 535 315 510 q 296 576 315 559 q 251 594 278 594 q 203 576 224 594 q 182 535 182 559 q 202 492 182 510 z "},"ా":{"ha":935,"x_min":-340,"x_max":900,"o":"m 509 136 q 459 267 459 191 q 518 396 459 343 q 664 448 577 448 q 736 429 704 448 q 780 390 768 410 q 727 484 780 452 q 606 517 674 517 l -340 517 l -340 649 l 612 649 q 832 547 748 649 q 900 360 900 462 q 850 156 900 229 q 680 69 793 69 q 509 136 567 69 m 720 328 q 672 346 701 346 q 624 325 643 346 q 606 274 606 303 q 629 227 606 244 q 681 209 653 209 q 727 229 710 209 q 744 279 745 249 q 720 328 743 310 z "},"ి":{"ha":0,"x_min":-226,"x_max":273,"o":"m 107 870 l 110 850 q 50 743 110 781 q -66 711 2 711 q -176 758 -134 711 q -214 850 -214 795 q -157 953 -214 905 q -2 1001 -100 1001 q 211 927 137 1001 q 273 770 273 862 q 197 602 273 678 q 2 527 120 527 q -226 604 -159 527 l -161 691 q 12 633 -105 633 q 112 676 67 633 q 161 770 161 720 q 107 870 161 843 m -95 853 q -95 843 -95 853 q -78 817 -95 833 q -34 802 -60 802 q 8 817 -8 802 q 25 853 25 833 q 8 890 25 873 q -34 907 -8 907 q -78 889 -60 907 q -95 853 -95 872 z "},"ీ":{"ha":0,"x_min":-236,"x_max":268,"o":"m 87 1099 q 20 1027 20 1099 q 32 1001 20 1017 q 199 924 131 989 q 263 761 263 855 q 184 598 263 668 q -8 529 105 529 q -236 606 -169 529 l -171 693 q 2 634 -112 634 q 102 678 57 634 q 151 771 151 721 q 97 872 151 842 q 100 852 97 872 q 55 753 100 795 q -66 713 5 713 q -181 751 -137 713 q -224 845 -224 790 q -185 940 -224 900 q -84 996 -146 981 q -95 1056 -95 1021 q -49 1158 -95 1118 q 90 1198 3 1198 q 224 1155 176 1198 q 268 1022 268 1109 l 146 1022 q 129 1078 146 1056 q 87 1099 110 1099 m -89 820 q -47 803 -72 803 q -8 818 -22 803 q 7 854 7 832 q -8 892 7 877 q -47 909 -22 909 q -89 892 -72 909 q -105 854 -105 875 q -89 820 -105 833 z "},"ు":{"ha":387,"x_min":-166,"x_max":351,"o":"m 87 633 q 276 541 201 633 q 351 310 351 450 q 279 79 351 169 q 76 -10 206 -10 q -117 67 -54 -10 q -166 171 -156 114 q -112 283 -166 253 l -107 286 l -87 286 q -35 176 -82 223 q 75 134 10 134 q 183 186 141 134 q 226 310 226 238 q 185 445 226 383 q 70 507 144 507 q 30 505 47 507 l 30 631 l 87 633 z "},"ూ":{"ha":870,"x_min":-166,"x_max":838,"o":"m -107 296 q -85 304 -97 303 q -74 298 -74 305 q -36 179 -74 224 q 75 134 2 134 q 187 190 149 134 q 226 320 226 246 q 194 445 226 393 q 79 507 152 507 q 30 505 47 507 l 30 633 l 551 633 q 762 545 686 633 q 838 358 838 457 q 780 149 838 231 q 614 67 721 67 q 447 134 507 67 q 398 264 398 187 q 457 394 398 341 q 601 447 515 447 q 678 422 639 447 q 716 388 706 407 q 664 481 716 450 q 546 512 612 512 l 295 512 q 351 295 351 422 q 279 79 351 169 q 75 -10 206 -10 q -119 65 -55 -10 q -166 175 -166 119 q -151 256 -166 231 q -107 296 -136 281 m 611 206 q 679 274 679 206 q 656 323 679 303 q 604 343 633 343 q 553 323 576 343 q 530 272 530 303 q 557 223 530 241 q 611 206 584 206 z "},"ృ":{"ha":460,"x_min":-79,"x_max":480,"o":"m 313 223 q 446 -23 412 139 q 402 -289 480 -186 q 230 -402 323 -392 q 50 -370 137 -413 q -65 -216 -44 -320 q -39 -91 -79 -156 q 70 -12 0 -27 q 216 -60 164 8 q 234 -104 229 -77 q 147 -274 256 -211 q 219 -281 186 -286 q 316 -192 286 -266 q 325 -18 346 -117 q 244 127 303 82 q 152 152 201 162 q 127 142 136 149 l 127 273 q 313 223 223 293 m 134 -137 q 87 -112 126 -102 q 60 -156 50 -120 q 104 -186 67 -191 q 134 -137 142 -176 z "},"ౄ":{"ha":820,"x_min":-69,"x_max":813,"o":"m 644 57 q 596 11 596 57 q 642 -35 596 -35 q 688 11 688 -35 q 644 57 688 57 m 137 -137 q 92 -112 131 -102 q 64 -156 55 -120 q 109 -186 72 -191 q 137 -137 147 -176 m 211 278 l 485 278 q 688 266 659 278 q 813 60 813 216 q 759 -77 813 -15 q 628 -139 704 -139 q 530 -102 574 -139 q 490 1 490 -60 q 531 102 490 62 q 646 142 572 142 l 698 137 q 635 176 673 169 q 500 182 597 182 l 377 182 q 365 181 370 181 q 457 -22 428 104 q 409 -285 490 -182 q 239 -392 328 -388 q 57 -365 147 -412 q -55 -214 -33 -318 q -29 -90 -69 -154 q 79 -10 10 -25 q 192 -25 149 5 q 244 -102 234 -59 q 156 -273 266 -209 q 228 -279 194 -284 q 325 -190 295 -264 q 334 -16 355 -115 q 254 131 313 84 q 162 154 211 164 q 137 144 146 151 l 137 274 q 211 278 174 283 z "},"ె":{"ha":0,"x_min":-333,"x_max":311,"o":"m 254 572 q 105 517 197 517 l -182 517 l -182 633 l 90 633 q 152 650 126 633 q 179 699 179 668 q 158 744 179 731 q 94 756 137 756 l -333 756 l -333 870 l 156 870 q 266 824 221 870 q 311 703 311 778 q 254 572 311 628 z "},"ే":{"ha":0,"x_min":-335,"x_max":474,"o":"m 258 576 q 110 517 201 517 l -182 517 l -182 633 l 100 633 q 152 648 131 633 q 174 696 174 664 q 155 740 174 728 q 94 753 136 753 l -335 753 l -335 868 l 74 868 l 72 919 q 139 1036 72 989 q 268 1081 199 1081 q 420 1024 365 1081 q 474 852 474 964 l 335 852 l 335 887 q 323 930 335 910 q 270 962 305 962 q 217 942 236 962 q 197 889 197 922 l 199 862 q 276 803 248 845 q 308 696 308 761 q 258 576 308 631 z "},"ై":{"ha":982,"x_min":74,"x_max":907,"o":"m 696 643 q 773 694 773 643 q 752 743 773 730 q 691 756 731 756 l 74 756 l 74 870 l 751 870 q 861 824 815 870 q 907 704 907 778 q 849 579 907 629 q 699 529 791 529 l 412 529 l 412 643 l 696 643 m 264 -418 q 136 -373 189 -418 q 79 -255 79 -321 q 131 -145 79 -189 q 247 -100 184 -100 q 351 -140 310 -100 q 393 -226 393 -179 q 380 -298 393 -273 l 907 -298 l 907 -418 l 264 -418 m 209 -223 q 199 -248 199 -233 q 216 -277 199 -264 q 248 -289 233 -289 q 270 -278 263 -289 q 278 -249 278 -266 q 266 -223 278 -233 q 238 -213 254 -213 q 209 -223 223 -213 z "},"ొ":{"ha":925,"x_min":-211,"x_max":890,"o":"m 512 547 q 647 599 567 599 q 760 562 726 599 q 718 663 760 622 q 624 704 676 704 q 532 673 572 704 q 492 587 492 638 l 351 587 q 279 720 351 666 q 120 775 207 775 q -22 753 32 775 q -72 702 -72 730 q -59 657 -72 674 q -7 633 -45 639 l 28 633 l 28 517 l -20 517 q -167 594 -115 529 q -211 698 -211 646 q -120 833 -211 778 q 98 889 -28 889 q 315 850 224 889 q 440 745 407 812 q 517 812 467 788 q 621 837 567 837 q 840 706 768 837 q 890 501 890 617 q 838 310 890 385 q 658 223 781 223 q 507 280 556 223 q 459 417 459 338 q 512 547 459 495 m 661 494 q 613 473 633 494 q 594 423 594 452 q 617 376 594 393 q 670 358 639 358 q 717 378 701 358 q 732 428 733 398 q 710 476 731 459 q 661 494 689 494 z "},"ో":{"ha":967,"x_min":-221,"x_max":932,"o":"m 559 830 q 534 922 534 858 q 589 1034 534 986 q 735 1081 646 1081 q 878 1029 823 1081 q 932 879 932 977 l 791 879 q 773 940 791 915 q 724 964 753 964 q 676 945 694 964 q 658 902 658 925 q 678 830 658 870 q 830 716 773 805 q 890 506 890 631 q 827 303 890 382 q 659 223 766 223 q 518 279 576 223 q 460 412 460 335 q 516 545 460 490 q 654 599 572 599 q 716 591 688 599 q 761 562 743 579 q 721 664 761 621 q 626 704 681 704 q 532 670 571 704 q 494 587 494 636 l 351 587 q 263 720 351 666 q 50 775 176 775 q -44 753 -3 775 q -82 704 -82 730 q -64 656 -82 678 q -17 633 -45 638 l 28 633 l 28 517 l -49 517 q -172 579 -124 527 q -221 704 -221 631 q -144 833 -221 778 q 44 889 -64 889 q 299 850 191 889 q 442 745 407 812 q 490 797 460 775 q 559 830 519 820 m 617 474 q 594 425 594 453 q 617 377 594 397 q 669 358 639 358 q 716 377 698 358 q 734 426 735 397 q 713 474 733 455 q 664 494 693 494 q 617 474 636 494 z "},"ౌ":{"ha":940,"x_min":-284,"x_max":905,"o":"m 117 633 q 152 648 137 633 q 167 691 167 664 q 136 743 167 718 l -284 743 l -284 877 l 622 877 q 837 765 756 877 q 905 558 905 671 q 847 356 905 445 q 676 268 788 268 q 507 333 564 268 q 457 464 457 388 q 519 587 457 540 q 661 633 574 633 q 780 587 746 633 q 720 704 765 658 q 611 751 671 751 l 269 751 q 291 716 284 743 q 301 666 301 694 q 259 559 301 602 q 154 517 214 517 l -207 517 l -207 633 l 117 633 m 741 474 q 669 535 738 535 q 620 517 639 535 q 601 469 601 499 q 624 422 601 440 q 678 403 648 403 q 725 428 708 403 q 741 474 741 447 z "},"్":{"ha":2,"x_min":-284,"x_max":360,"o":"m -189 758 q -284 889 -284 803 q -238 1005 -284 955 q -122 1054 -192 1054 l 360 1054 l 360 927 l -80 927 q -119 913 -100 927 q -137 879 -137 899 q -117 843 -137 858 q -80 833 -100 833 l 194 833 l 194 711 l -60 711 q -91 699 -77 711 q -105 670 -105 688 q -94 641 -105 653 q -65 633 -80 633 l 176 633 l 176 517 l -114 517 q -217 557 -174 517 q -259 653 -259 597 q -236 711 -259 678 q -189 758 -214 748 z "},"ౕ":{"ha":346,"x_min":0,"x_max":346,"o":"m 127 924 q 141 872 127 885 l 28 852 q 0 945 3 887 q 51 1062 0 1011 q 165 1113 102 1113 q 279 1088 228 1113 q 346 1009 331 1063 l 258 934 q 234 969 254 954 q 194 986 216 986 q 127 924 127 986 z "},"ౖ":{"ha":0,"x_min":0,"x_max":731,"o":"m 271 -141 q 313 -228 313 -177 q 300 -298 313 -279 l 731 -298 l 731 -418 l 186 -418 q 54 -371 109 -418 q 0 -256 0 -323 q 53 -145 0 -189 q 168 -100 105 -100 q 271 -141 231 -100 m 191 -274 q 199 -249 199 -266 q 187 -223 199 -233 q 160 -213 176 -213 q 130 -223 144 -213 q 115 -248 115 -233 q 133 -277 115 -264 q 167 -289 151 -289 q 191 -274 184 -289 m 147 -408 z "},"ౘ":{"ha":992,"x_min":25,"x_max":959,"o":"m 711 606 q 870 527 798 599 q 959 310 959 443 q 884 85 959 177 q 685 -8 808 -8 q 539 60 562 -8 q 387 -10 485 -10 q 223 58 288 -10 q 159 216 159 126 q 189 308 159 279 l 25 308 l 25 437 l 403 437 l 403 335 q 315 236 315 315 q 336 161 315 196 q 400 131 361 131 q 474 233 474 131 l 469 273 l 631 273 l 626 218 q 701 119 626 119 q 791 181 760 119 q 822 305 822 243 q 711 474 822 437 q 504 490 651 490 l 482 490 q 343 540 400 490 q 279 698 279 591 l 422 698 q 417 678 417 691 q 448 624 417 643 q 497 611 464 617 l 522 611 q 606 664 569 616 l 684 763 q 813 815 738 815 q 879 800 845 815 l 879 671 q 813 693 865 693 q 738 641 776 693 l 711 606 m 715 1151 q 744 1151 715 1151 q 822 1109 773 1151 q 870 1006 870 1066 q 817 901 870 945 q 694 857 765 857 l 129 857 l 129 962 l 599 962 q 579 1032 579 989 q 618 1114 579 1076 q 715 1151 658 1151 m 766 1014 q 725 1056 766 1056 q 683 1012 683 1056 q 709 967 683 967 q 750 982 735 967 q 766 1014 766 992 z "},"ౙ":{"ha":812,"x_min":25,"x_max":778,"o":"m 623 1041 q 652 1041 623 1041 q 730 998 681 1041 q 778 895 778 955 q 725 791 778 835 q 602 746 673 746 l 37 746 l 37 852 l 507 852 q 487 922 487 879 q 526 1003 487 966 q 623 1041 566 1041 m 674 904 q 633 945 674 945 q 591 901 591 945 q 617 857 591 857 q 658 872 643 857 q 674 904 674 882 m 485 186 q 546 114 485 120 q 596 134 572 114 q 616 183 616 156 q 609 218 616 211 l 597 238 l 750 238 q 755 177 756 206 q 699 49 755 104 q 544 -7 644 -7 q 390 60 450 -17 q 250 -10 331 -10 q 105 47 169 -10 q 45 192 45 105 q 114 316 45 278 l 234 360 q 301 435 301 382 q 244 494 301 494 q 174 402 174 494 l 25 402 q 100 555 25 489 q 257 621 174 621 q 390 566 340 621 q 448 469 395 562 q 524 415 480 415 q 575 432 552 415 q 597 475 597 448 q 532 529 597 529 q 490 524 507 529 l 467 512 l 467 646 q 636 633 597 646 q 745 484 745 597 q 673 353 745 400 q 540 305 612 305 q 403 335 469 305 q 286 268 390 305 q 201 186 201 236 q 222 141 201 159 q 271 120 243 124 q 360 218 353 120 l 490 218 l 485 186 z "},"ౠ":{"ha":1996,"x_min":25,"x_max":1963,"o":"m 1811 283 q 1798 332 1811 318 q 1742 346 1785 346 q 1687 278 1687 346 q 1742 209 1687 209 q 1788 232 1769 209 q 1811 283 1807 254 m 1528 285 q 1528 227 1528 285 q 1446 79 1528 169 q 1248 -10 1364 -10 q 1068 72 1133 -10 q 877 -10 989 -10 q 706 64 765 -10 l 698 75 q 495 -5 617 -5 q 432 12 460 -5 q 387 57 427 13 q 222 -8 316 -8 q 79 49 127 -8 q 28 177 28 97 q 182 366 28 316 l 248 385 q 278 433 278 400 q 219 487 278 487 q 139 407 139 487 l 25 407 q 228 606 25 606 q 352 560 305 606 q 400 436 400 514 q 338 315 400 358 l 224 264 q 164 186 164 236 q 185 141 164 161 q 243 120 206 120 q 320 177 306 120 q 321 202 321 187 q 318 233 321 218 l 452 233 l 452 201 q 483 145 452 164 q 542 122 514 126 q 630 182 594 122 q 666 304 666 241 q 627 423 666 366 q 525 480 587 480 q 477 469 504 480 l 477 602 l 532 606 q 712 519 639 606 q 785 293 785 432 l 785 273 l 810 196 q 902 124 842 124 q 999 182 962 124 q 1036 305 1036 241 q 1004 420 1036 370 q 895 487 964 487 l 847 485 l 847 606 l 904 609 q 1083 519 1011 609 q 1155 293 1155 428 l 1155 278 q 1183 196 1176 207 q 1274 124 1215 124 q 1371 183 1334 124 q 1409 305 1409 243 q 1376 420 1409 366 q 1268 487 1335 487 l 1218 487 l 1218 609 l 1729 611 q 1916 509 1849 611 q 1963 360 1963 435 q 1898 177 1963 253 q 1739 100 1834 100 q 1621 152 1675 100 q 1568 278 1568 204 q 1619 400 1568 351 q 1744 448 1670 448 q 1804 438 1775 448 q 1755 482 1785 474 l 1673 487 l 1476 487 q 1528 285 1528 402 z "},"ౡ":{"ha":1426,"x_min":25,"x_max":1392,"o":"m 1237 179 q 1180 233 1237 233 q 1123 176 1123 233 q 1178 119 1123 119 q 1237 179 1237 119 m 914 393 l 915 335 q 837 90 915 191 q 607 -10 758 -10 q 400 85 455 -10 q 363 264 363 146 q 522 447 363 400 q 609 543 609 469 q 537 617 609 617 q 469 592 504 617 q 435 532 438 562 l 435 487 l 308 487 l 306 556 q 284 592 306 572 q 231 616 261 612 q 174 592 201 616 q 151 525 151 561 q 211 455 151 455 q 258 462 243 455 l 258 330 q 82 371 120 330 q 25 521 25 432 q 95 676 25 611 q 239 741 166 741 q 395 666 363 741 q 439 718 397 693 q 551 743 482 743 q 683 691 621 743 q 745 551 745 639 q 599 351 745 383 q 521 312 551 338 q 492 256 492 286 q 504 174 492 201 q 614 115 529 115 q 741 187 699 115 q 773 288 773 238 l 773 393 l 768 512 l 981 512 q 1237 495 1200 512 q 1392 238 1392 435 q 1325 65 1392 142 q 1160 -12 1258 -12 q 1041 38 1094 -12 q 987 164 987 87 q 1039 291 987 241 q 1185 341 1091 341 l 1250 336 q 1171 384 1217 375 q 999 393 1124 393 l 914 393 z "},"ౢ":{"ha":5,"x_min":-586,"x_max":-65,"o":"m -65 -263 q -108 -419 -65 -356 q -242 -482 -151 -482 q -365 -425 -333 -482 q -387 -315 -387 -390 q -295 -213 -387 -241 q -243 -159 -243 -199 q -286 -114 -243 -114 q -326 -127 -305 -114 q -339 -146 -333 -137 q -345 -162 -345 -154 l -345 -191 l -420 -191 l -420 -151 q -433 -129 -420 -141 q -464 -114 -447 -117 q -497 -127 -482 -114 q -512 -167 -512 -146 q -477 -209 -512 -209 q -450 -206 -459 -209 l -450 -281 q -552 -259 -529 -281 q -586 -170 -586 -223 q -544 -79 -586 -117 q -460 -42 -502 -42 q -368 -85 -387 -42 q -345 -54 -366 -69 q -276 -40 -316 -40 q -200 -70 -236 -40 q -164 -152 -164 -100 q -249 -269 -164 -249 q -295 -293 -278 -278 q -311 -333 -311 -308 q -243 -408 -311 -408 q -166 -365 -189 -408 q -147 -306 -147 -336 l -147 -263 l -65 -263 z "},"ౣ":{"ha":221,"x_min":-586,"x_max":207,"o":"m 117 -366 q 87 -336 117 -336 q 52 -369 52 -336 q 82 -402 52 -402 q 117 -366 117 -402 m -70 -243 l -69 -278 q -112 -417 -69 -360 q -248 -475 -161 -475 q -368 -420 -335 -475 q -388 -318 -388 -385 q -296 -211 -388 -238 q -248 -155 -248 -197 q -289 -112 -248 -112 q -341 -144 -323 -112 q -348 -161 -346 -152 l -348 -189 l -422 -189 l -422 -149 q -435 -127 -422 -139 q -499 -127 -469 -100 q -514 -164 -514 -144 q -477 -207 -514 -207 q -452 -204 -460 -207 l -452 -279 q -552 -254 -530 -279 q -586 -168 -586 -219 q -546 -79 -586 -117 q -462 -42 -505 -42 q -370 -84 -388 -42 q -348 -54 -370 -69 q -280 -40 -321 -40 q -203 -70 -239 -40 q -167 -151 -167 -100 q -253 -268 -167 -248 q -298 -289 -281 -274 q -315 -330 -315 -305 q -248 -403 -315 -403 q -169 -361 -196 -403 q -151 -303 -151 -333 l -151 -243 l -152 -174 l -32 -174 q 117 -182 95 -174 q 207 -333 207 -218 q 169 -433 207 -388 q 83 -477 131 -477 q 3 -448 35 -477 q -27 -375 -27 -420 q 3 -301 -27 -330 q 89 -273 33 -273 l 126 -274 q 80 -248 107 -253 q -20 -243 54 -243 l -70 -243 z "},"౦":{"ha":698,"x_min":0,"x_max":643,"o":"m 321 628 q 549 534 455 628 q 643 305 643 440 q 551 71 643 169 q 320 -27 459 -27 q 90 70 182 -27 q 0 304 0 167 q 94 534 0 440 q 321 628 187 628 m 515 306 q 458 443 515 385 q 321 500 400 500 q 186 443 243 500 q 129 306 129 385 q 185 177 129 228 q 321 126 241 126 q 459 177 402 126 q 515 306 515 228 z "},"౧":{"ha":721,"x_min":0,"x_max":668,"o":"m 668 288 q 542 -20 668 104 l 442 62 q 539 288 539 161 q 478 436 539 371 q 334 500 417 500 q 190 436 251 500 q 129 288 129 371 q 226 62 129 161 l 126 -20 q 0 288 0 104 q 96 529 0 430 q 334 628 192 628 q 571 529 475 628 q 668 288 668 430 z "},"౨":{"ha":830,"x_min":0,"x_max":761,"o":"m 447 621 q 669 529 577 621 q 761 304 761 437 q 672 75 761 171 q 447 -20 582 -20 l 0 -20 l 0 119 l 447 119 q 591 170 534 119 q 648 306 648 221 q 597 433 648 392 q 546 347 587 385 q 443 310 504 310 q 337 356 383 310 q 291 466 291 402 q 337 576 291 530 q 447 621 383 621 m 510 490 q 459 507 489 507 q 418 494 430 507 q 407 465 407 482 q 418 437 407 448 q 447 425 430 425 q 510 490 502 425 z "},"౩":{"ha":577,"x_min":0,"x_max":510,"o":"m 465 306 q 510 182 510 281 q 428 27 510 82 q 256 -20 360 -20 q 82 28 152 -20 q 0 192 0 84 l 115 192 q 255 119 115 119 q 395 183 395 119 q 335 248 395 248 l 186 248 l 186 363 l 335 363 q 379 382 363 363 q 395 428 395 400 q 346 490 395 470 q 256 507 310 507 q 159 488 202 507 q 115 420 115 469 l 0 420 q 85 579 0 525 q 256 621 156 621 q 425 579 356 621 q 510 433 510 527 q 465 306 510 338 z "},"౪":{"ha":776,"x_min":0,"x_max":708,"o":"m 708 479 q 643 308 708 385 q 495 209 577 231 q 509 147 509 187 q 467 28 509 75 q 352 -20 425 -20 q 239 26 279 -20 q 199 147 199 72 q 211 209 199 191 q 65 308 131 231 q 0 479 0 385 q 42 579 0 537 q 152 621 84 621 l 169 519 q 131 507 144 519 q 119 479 119 495 q 207 346 119 397 q 356 301 283 301 q 504 346 430 301 q 589 479 589 397 q 577 507 589 495 q 540 519 566 519 l 557 621 q 666 579 624 621 q 708 479 708 537 m 395 147 q 383 176 395 164 q 355 187 371 187 q 325 176 338 187 q 313 147 313 164 q 325 119 313 131 q 355 107 338 107 q 383 119 371 107 q 395 147 395 131 z "},"౫":{"ha":741,"x_min":0,"x_max":674,"o":"m 529 390 q 547 464 547 415 q 519 547 547 547 q 494 532 500 547 q 482 490 482 517 q 494 434 482 464 q 529 390 505 405 m 611 321 q 664 181 664 258 q 604 42 664 104 q 462 -17 542 -17 l 452 -17 l 452 75 q 519 100 490 70 q 549 179 549 136 q 546 211 549 196 q 532 224 549 202 q 332 52 462 117 q 54 -13 202 -13 q 15 -3 30 -13 q 0 27 0 8 q 11 58 0 45 q 40 70 22 70 q 206 310 206 84 q 165 473 206 408 q 52 529 124 537 q 37 530 44 529 l 37 626 q 67 633 50 633 q 269 538 186 633 q 353 310 353 443 q 325 164 353 207 q 479 306 433 226 q 395 395 425 343 q 363 500 363 447 q 410 597 363 554 q 520 641 457 641 q 628 594 584 641 q 674 482 674 549 q 611 321 674 415 z "},"౬":{"ha":741,"x_min":0,"x_max":674,"o":"m 674 -20 l 184 -20 q 54 39 107 -20 q 0 182 0 99 q 55 305 0 264 q 0 435 0 356 q 54 567 0 514 q 184 621 107 621 l 306 621 l 306 507 l 184 507 q 135 487 154 507 q 115 436 115 467 q 135 384 115 405 q 184 363 154 363 l 378 363 l 378 248 l 184 248 q 136 227 156 248 q 115 178 115 206 q 137 136 115 151 q 184 119 157 119 l 674 119 l 674 -20 z "},"౭":{"ha":631,"x_min":0,"x_max":571,"o":"m 571 197 q 475 20 571 77 q 283 -23 400 -23 q 94 17 166 -23 q 0 186 0 72 q 97 341 0 300 q 259 366 159 366 q 392 375 360 366 q 448 428 448 388 q 284 504 448 504 q 181 487 224 504 q 122 417 122 469 l 0 417 q 99 584 0 530 q 287 624 177 624 q 472 586 397 624 q 571 423 571 534 q 474 271 571 313 q 311 246 412 246 q 179 239 211 246 q 122 186 122 224 q 285 122 122 122 q 448 197 448 122 l 571 197 z "},"౮":{"ha":798,"x_min":0,"x_max":736,"o":"m 736 504 l 569 504 q 612 427 589 487 q 636 306 636 366 q 546 73 636 169 q 317 -23 455 -23 q 90 72 179 -23 q 0 303 0 167 q 102 540 0 438 l 186 452 q 122 306 122 387 q 179 174 122 226 q 318 122 236 122 q 458 174 400 122 q 515 307 515 226 q 458 446 515 388 q 306 504 400 504 l 306 624 l 736 624 l 736 504 z "},"౯":{"ha":735,"x_min":0,"x_max":668,"o":"m 668 507 l 184 507 q 136 486 156 507 q 115 437 115 465 q 136 387 115 408 q 184 365 156 365 l 378 365 l 378 249 l 184 249 q 135 228 154 249 q 115 178 115 207 q 136 134 115 149 q 184 119 156 119 l 306 119 l 306 -20 l 184 -20 q 54 39 107 -20 q 0 177 0 99 q 55 308 0 256 q 0 431 0 348 q 54 567 0 514 q 184 621 107 621 l 668 621 l 668 507 z "},"౸":{"ha":634,"x_min":35,"x_max":606,"o":"m 196 32 q 319 82 249 49 q 418 134 388 115 q 480 201 480 171 q 443 239 480 226 q 341 266 422 248 q 328 264 335 264 l 311 264 q 112 348 192 264 q 35 546 35 428 q 114 735 35 658 q 311 815 197 815 q 509 735 428 815 q 587 546 587 656 q 561 420 587 477 q 492 330 534 363 q 557 289 530 315 q 595 245 584 264 q 606 198 606 226 q 587 142 606 171 q 538 89 569 114 q 471 42 507 64 q 398 3 435 20 q 328 -26 361 -13 q 263 -52 295 -38 l 196 32 m 464 546 q 417 659 464 616 q 311 704 370 704 q 207 659 251 704 q 161 546 161 614 q 204 438 161 480 q 311 400 248 400 q 452 485 413 400 q 464 546 464 512 z "},"౹":{"ha":366,"x_min":134,"x_max":259,"o":"m 134 803 l 259 803 l 259 -7 l 134 -7 l 134 803 z "},"౺":{"ha":576,"x_min":60,"x_max":504,"o":"m 278 412 q 378 435 331 412 l 378 803 l 504 803 l 504 -7 l 378 -7 l 378 315 q 279 300 333 300 q 189 314 226 300 q 124 355 152 328 q 60 504 60 412 l 60 803 l 186 803 l 186 514 q 244 417 186 435 q 278 412 261 412 z "},"౻":{"ha":894,"x_min":60,"x_max":822,"o":"m 596 412 q 698 435 651 412 l 698 803 l 822 803 l 822 -7 l 698 -7 l 698 315 q 574 300 638 300 q 440 346 510 300 q 264 300 361 300 q 124 355 184 300 q 60 504 60 412 l 60 803 l 186 803 l 186 514 q 244 417 186 435 q 277 412 261 412 q 310 416 293 412 q 341 428 328 420 q 378 492 378 450 l 378 803 l 504 803 l 504 495 q 564 415 504 432 q 596 412 579 412 z "},"౼":{"ha":853,"x_min":49,"x_max":832,"o":"m 49 336 l 49 448 l 832 448 l 832 336 l 49 336 z "},"౽":{"ha":982,"x_min":109,"x_max":971,"o":"m 234 164 q 413 129 234 129 l 971 129 l 971 -7 l 415 -7 q 283 0 321 -7 q 213 18 244 7 q 159 47 182 28 q 109 156 109 87 q 187 281 109 238 q 278 316 226 301 q 382 346 330 331 q 463 369 435 360 q 505 385 490 378 q 535 428 535 400 q 515 464 535 455 q 450 472 494 472 l 124 472 l 124 582 l 450 582 q 607 541 552 582 q 661 432 661 500 q 596 305 661 353 q 445 248 549 268 q 254 191 306 219 q 234 164 234 179 z "},"౾":{"ha":1068,"x_min":109,"x_max":1056,"o":"m 234 459 q 351 437 234 437 q 503 418 462 437 q 560 375 544 398 q 576 317 576 351 q 565 259 576 283 q 535 220 554 236 q 492 194 517 204 q 442 179 467 184 q 390 172 417 174 q 341 168 363 171 q 305 165 320 166 q 281 161 291 164 q 264 152 264 157 q 269 145 264 147 q 288 140 274 142 q 319 135 301 137 q 356 131 336 132 q 396 130 377 131 q 430 129 415 129 l 1056 129 l 1056 -7 l 432 -7 q 254 7 301 -7 q 186 37 207 20 q 139 134 139 74 q 189 239 139 204 q 365 281 236 273 q 439 289 428 284 q 450 302 450 295 q 442 314 450 310 q 418 321 433 318 q 350 326 383 326 q 122 395 171 326 q 109 445 109 415 q 120 499 109 475 q 151 542 131 524 q 325 586 196 581 q 403 593 388 587 q 418 608 418 599 q 412 622 418 617 q 395 629 407 626 q 321 634 375 634 l 115 634 l 115 745 l 321 745 q 529 681 489 745 q 544 618 544 658 q 528 552 544 579 q 484 509 512 525 q 308 474 435 482 q 243 467 251 470 q 234 459 234 464 z "},"౿":{"ha":1135,"x_min":0,"x_max":1093,"o":"m 275 494 q 289 494 275 494 q 319 512 303 494 q 335 554 335 530 q 330 591 335 577 q 318 614 326 604 q 274 641 296 641 q 219 592 236 641 q 214 555 214 577 q 231 513 214 532 q 275 494 248 494 m 119 520 q 112 438 112 500 q 145 306 112 375 q 231 202 177 238 q 527 131 343 131 q 622 137 569 131 q 885 295 783 181 q 972 398 924 335 l 982 413 l 1093 360 l 1083 335 q 914 132 1012 207 q 722 26 815 57 q 522 -5 629 -5 q 341 18 415 -5 q 227 64 268 42 q 133 129 186 87 q 40 257 80 171 q 0 450 0 343 q 147 716 0 638 q 253 738 197 738 q 403 684 346 738 q 445 551 445 639 q 428 482 445 514 q 387 432 412 450 q 287 392 331 392 q 213 405 243 392 q 127 490 152 428 q 119 520 120 507 z "},"‌":{"ha":0,"x_min":0,"x_max":74,"o":"m 0 -433 l 0 1019 l 74 1019 l 74 -433 l 0 -433 z "},"‍":{"ha":0,"x_min":0,"x_max":279,"o":"m 0 -433 l 0 1019 l 279 1019 l 279 957 l 74 957 l 74 -433 l 0 -433 z "},"–":{"ha":889,"x_min":28,"x_max":820,"o":"m 28 363 l 820 363 l 820 266 l 28 266 l 28 363 z "},"—":{"ha":1936,"x_min":5,"x_max":1822,"o":"m 5 363 l 1822 363 l 1822 266 l 5 266 l 5 363 z "},"“":{"ha":694,"x_min":102,"x_max":591,"o":"m 393 564 l 393 696 q 412 842 393 780 q 469 955 430 904 l 591 955 q 525 846 549 902 q 502 741 502 790 l 589 741 l 589 564 l 393 564 m 102 564 l 102 696 q 120 841 102 778 q 176 955 137 904 l 300 955 q 234 846 258 902 q 211 741 211 790 l 298 741 l 298 564 l 102 564 z "},"”":{"ha":694,"x_min":102,"x_max":591,"o":"m 591 825 q 574 680 591 743 q 517 564 557 617 l 393 564 q 484 780 484 678 l 397 780 l 397 955 l 591 955 l 591 825 m 300 825 q 283 679 300 740 q 226 564 266 619 l 102 564 q 191 780 191 678 l 105 780 l 105 955 l 300 955 l 300 825 z "},"•":{"ha":485,"x_min":44,"x_max":442,"o":"m 442 459 q 382 317 442 377 q 241 258 323 258 q 102 317 161 258 q 44 459 44 377 q 102 599 44 540 q 241 658 161 658 q 382 599 323 658 q 442 459 442 540 z "},"…":{"ha":1396,"x_min":28,"x_max":1329,"o":"m 28 33 l 281 33 l 281 -49 l 28 -49 l 28 33 m 562 33 l 817 33 l 817 -49 l 562 -49 l 562 33 m 1076 33 l 1329 33 l 1329 -49 l 1076 -49 l 1076 33 z "},"₹":{"ha":750,"x_min":28,"x_max":686,"o":"m 686 971 l 628 867 l 469 867 q 496 816 489 842 q 514 760 504 790 l 686 760 l 628 658 l 519 658 q 478 541 502 581 q 423 477 453 502 q 358 433 392 452 q 213 393 284 393 l 525 -52 l 375 -52 l 62 378 l 62 470 l 136 467 q 286 499 219 467 q 375 611 356 532 q 390 658 385 648 l 28 658 l 90 760 l 370 760 q 351 799 361 786 q 325 830 341 812 q 209 867 289 867 l 28 867 l 90 971 l 686 971 z "},"℃":{"ha":1365,"x_min":100,"x_max":1329,"o":"m 902 144 q 1155 326 1083 144 l 1329 259 q 1163 54 1272 120 q 902 -13 1054 -13 q 546 117 671 -13 q 420 482 420 248 q 541 844 420 718 q 894 971 663 971 q 1168 903 1063 971 q 1315 704 1273 835 l 1140 656 q 1052 771 1118 728 q 897 813 986 813 q 691 729 761 813 q 621 482 621 644 q 694 231 621 318 q 902 144 766 144 m 244 942 q 347 900 305 942 q 390 800 390 858 q 347 699 390 741 q 245 658 305 658 q 143 699 186 658 q 100 800 100 741 q 142 900 100 858 q 244 942 184 942 m 244 706 q 308 734 281 706 q 335 800 335 761 q 308 865 335 838 q 244 892 281 892 q 182 865 207 892 q 156 800 156 838 q 182 734 156 761 q 244 706 207 706 z "},"℉":{"ha":1235,"x_min":100,"x_max":1186,"o":"m 681 802 l 681 505 l 1170 505 l 1170 351 l 681 351 l 681 0 l 482 0 l 482 955 l 1186 955 l 1186 802 l 681 802 m 244 942 q 347 900 305 942 q 390 800 390 858 q 347 699 390 741 q 245 658 305 658 q 143 699 186 658 q 100 800 100 741 q 142 900 100 858 q 244 942 184 942 m 244 706 q 308 734 281 706 q 335 800 335 761 q 308 865 335 838 q 244 892 281 892 q 182 865 207 892 q 156 800 156 838 q 182 734 156 761 q 244 706 207 706 z "},"⅓":{"ha":1158,"x_min":64,"x_max":1106,"o":"m 356 0 l 219 0 l 827 955 l 962 955 l 356 0 m 64 470 l 64 552 l 189 552 l 189 870 l 72 797 l 72 880 l 194 959 l 313 959 l 313 552 l 427 552 l 427 470 l 64 470 m 1106 136 q 1055 30 1106 69 q 910 -8 1004 -8 q 765 27 818 -8 q 703 134 711 62 l 830 141 q 909 79 837 77 q 977 144 977 79 q 884 206 977 207 l 845 206 l 845 291 l 880 291 q 945 307 924 291 q 966 353 966 323 q 950 394 966 380 q 905 408 934 408 q 838 348 845 408 l 713 356 q 771 458 720 420 q 909 495 823 495 q 1044 460 996 495 q 1093 368 1093 425 q 1068 294 1093 325 q 989 251 1043 263 l 989 251 q 1076 213 1046 244 q 1106 136 1106 182 z "},"←":{"ha":1093,"x_min":40,"x_max":1039,"o":"m 293 420 q 348 331 328 373 q 375 197 375 268 q 40 455 244 380 q 375 710 241 525 q 348 576 375 644 q 296 490 325 522 l 1039 490 l 1039 420 l 293 420 z "},"↑":{"ha":606,"x_min":44,"x_max":551,"o":"m 261 701 q 163 645 216 669 q 44 621 110 621 q 296 957 221 750 q 551 621 373 748 q 424 646 484 621 q 333 699 365 671 l 333 -45 l 261 -45 l 261 701 z "},"→":{"ha":1094,"x_min":44,"x_max":1043,"o":"m 708 197 q 786 420 708 316 l 44 420 l 44 490 l 790 490 q 708 710 708 601 q 1043 455 845 525 q 708 197 842 380 z "},"↓":{"ha":607,"x_min":49,"x_max":556,"o":"m 266 952 l 338 952 l 338 211 q 423 259 370 238 q 556 289 489 289 q 301 -50 378 159 q 49 289 226 157 q 169 264 117 289 q 266 207 221 239 l 266 952 z "},"−":{"ha":889,"x_min":28,"x_max":820,"o":"m 28 363 l 820 363 l 820 266 l 28 266 l 28 363 z "},"◌":{"ha":1178,"x_min":92,"x_max":1076,"o":"m 585 720 q 572 720 585 720 q 540 737 559 720 q 522 779 522 755 q 540 821 522 803 q 585 838 559 838 q 628 821 611 838 q 646 779 646 803 q 628 737 646 755 q 585 720 611 720 m 585 -142 q 572 -142 585 -142 q 540 -125 559 -142 q 522 -83 522 -107 q 540 -41 522 -59 q 585 -23 559 -23 q 628 -41 611 -23 q 646 -83 646 -59 q 628 -125 646 -107 q 585 -142 611 -142 m 153 288 q 140 288 153 288 q 110 305 127 288 q 92 347 92 323 q 110 389 92 371 q 153 407 127 407 q 197 389 179 407 q 214 347 214 371 q 197 305 214 323 q 153 288 179 288 m 1015 288 q 1002 288 1015 288 q 971 305 989 288 q 954 347 954 323 q 971 389 954 371 q 1015 407 989 407 q 1058 389 1041 407 q 1076 347 1076 371 q 1058 305 1076 323 q 1015 288 1041 288 m 212 74 q 199 74 212 74 q 168 91 186 74 q 151 133 151 109 q 168 175 151 157 q 212 192 186 192 q 255 175 238 192 q 273 133 273 157 q 255 91 273 109 q 212 74 238 74 m 958 504 q 945 504 958 504 q 914 521 932 504 q 897 563 897 539 q 914 605 897 587 q 958 622 932 622 q 1002 605 984 622 q 1019 563 1019 587 q 1002 521 1019 539 q 958 504 984 504 m 799 663 q 786 663 799 663 q 756 680 773 663 q 738 722 738 698 q 756 764 738 746 q 799 781 773 781 q 843 764 825 781 q 860 722 860 746 q 843 680 860 698 q 799 663 825 663 m 369 -85 q 356 -85 369 -85 q 325 -67 343 -85 q 308 -24 308 -49 q 325 18 308 0 q 369 35 343 35 q 412 18 395 35 q 430 -24 430 0 q 412 -67 430 -49 q 369 -85 395 -85 m 212 504 q 199 504 212 504 q 168 521 186 504 q 151 563 151 539 q 168 605 151 587 q 212 622 186 622 q 255 605 238 622 q 273 563 273 587 q 255 521 273 539 q 212 504 238 504 m 958 74 q 945 74 958 74 q 914 91 932 74 q 897 133 897 109 q 914 175 897 157 q 958 192 932 192 q 1002 175 984 192 q 1019 133 1019 157 q 1002 91 1019 109 q 958 74 984 74 m 369 663 q 356 663 369 663 q 325 680 343 663 q 308 722 308 698 q 325 764 308 746 q 369 781 343 781 q 412 764 395 781 q 430 722 430 746 q 412 680 430 698 q 369 663 395 663 m 799 -85 q 786 -85 799 -85 q 756 -67 773 -85 q 738 -24 738 -49 q 756 18 738 0 q 799 35 773 35 q 843 18 825 35 q 860 -24 860 0 q 843 -67 860 -49 q 799 -85 825 -85 z "}}}
